<svg version="1.1" xmlns="http://www.w3.org/2000/svg" xmlns:xlink="http://www.w3.org/1999/xlink" width="424.77466" height="85.62723" viewBox="0,0,424.77466,85.62723"><g transform="translate(-26.99997,-135.80002)"><g data-paper-data="{&quot;isPaintingLayer&quot;:true}" fill-rule="nonzero" stroke="none" stroke-width="1" stroke-linecap="butt" stroke-linejoin="miter" stroke-miterlimit="10" stroke-dasharray="" stroke-dashoffset="0" style="mix-blend-mode: normal"><path d="M66.43193,140.36595c0,0.32057 -0.29704,0.64113 -0.44556,0.64113c-0.3713,0.16028 -0.81686,0.16028 -1.26242,0.32057c-0.66834,0.16028 -0.89112,0.64113 -0.96538,2.08368c-0.07426,2.24396 0,4.32764 0.14852,6.41132c0.44556,5.44963 0.44556,10.89925 0.22278,16.34888c-0.3713,9.29642 -0.29704,18.75312 -0.14852,28.20982c0.07426,5.28934 0.14852,10.57868 0.22278,15.86803c0,2.72481 -0.66834,4.96878 -1.33668,7.21274c-0.3713,1.28226 -0.66834,1.60283 -1.33668,1.60283c-0.66834,0 -1.03964,-0.64113 -1.41094,-1.60283c-2.15353,-5.12906 -4.60411,-9.29642 -7.05468,-13.62406c-3.86151,-6.89217 -7.35172,-14.58576 -10.47063,-22.92048c-1.1139,-2.8851 -2.45057,-5.44963 -3.71299,-8.17444c-0.14852,0 -0.22278,0 -0.29704,0.16028c0,1.60283 0.07426,3.20566 0,4.80849c-0.3713,7.53331 0.29704,14.90633 0.22278,22.43963c0,2.40425 -0.22278,4.80849 -0.07426,7.21274c0.07426,1.12198 0.29704,1.76311 0.81686,1.9234c0.3713,0.16028 0.81686,0.32057 1.26242,0.32057c0.29704,0 0.44556,0.32057 0.44556,1.12198c0.07426,1.28226 -0.14852,2.40425 -0.51982,3.36595c-0.44556,1.12198 -0.7426,2.40425 -1.1139,3.68651c-0.22278,0.80142 -0.51982,1.44255 -0.96538,1.44255c-2.00501,0.16028 -4.08429,0.32057 -6.0893,0.48085c-0.81686,0 -1.63371,-0.16028 -2.45057,-0.16028c-0.51982,0 -0.7426,-0.48085 -0.7426,-1.60283c0,-1.12198 0.14852,-2.24396 0.59408,-3.04538c0.7426,-1.44255 1.4852,-3.04538 2.07927,-4.48793c0.14852,-0.32057 0.29704,-0.9617 0.29704,-1.44255c0.07426,-0.9617 -0.07426,-1.9234 -0.07426,-2.8851c0,-0.64113 0.07426,-1.44255 0.14852,-2.24396c0.07426,-0.48085 0.07426,-0.9617 0.07426,-1.44255c0.07426,-7.37302 0.14852,-14.90633 0.14852,-22.27935c0,-6.57161 0,-13.14321 0,-19.55454c0,-2.08368 -0.07426,-4.16736 -0.14852,-6.09076c-0.07426,-2.72481 -0.89112,-4.48793 -2.15353,-4.96878c-0.96538,-0.32057 -2.00501,-0.48085 -3.04465,-0.80142c-0.07426,0 -0.29704,-0.48085 -0.29704,-0.64113c0,-0.9617 0,-1.76311 0.07426,-2.72481c0,-0.16028 0.07426,-0.48085 0.07426,-0.48085c0.96538,-2.24396 1.85649,-4.48793 2.74761,-6.57161c0.07426,-0.32057 0.07426,-0.64113 0.14852,-1.28226c1.1139,0.16028 2.22779,0.16028 3.34169,0.64113c1.70797,0.32057 3.26743,1.60283 4.75262,3.52623c0.22278,0.16028 0.3713,0.48085 0.51982,0.80142c1.26242,2.8851 2.45057,5.60991 3.71299,8.495c0.7426,1.9234 1.4852,3.68651 2.30205,5.44963c1.33668,2.72481 2.74761,5.44963 4.08429,8.33472c1.41094,3.04538 2.67335,6.09076 4.01003,9.13614c1.41094,3.20566 2.82187,6.25104 4.23281,9.29642c0.44556,1.12198 0.96538,2.24396 1.55945,3.52623c0.07426,-2.24396 0.14852,-4.16736 0.14852,-6.09076c0.07426,-5.93047 0.22278,-12.02123 0.14852,-17.95171c0,-4.00708 -0.29704,-8.17444 -0.44556,-12.18152c-0.07426,-1.44255 -0.44556,-2.40425 -1.1139,-2.56453c-0.66834,-0.32057 -1.26242,-0.32057 -1.93075,-0.32057c-0.3713,0 -0.51982,-0.16028 -0.59408,-0.9617c0,-0.16028 0,-0.16028 0,-0.16028c-0.07426,-0.9617 -0.3713,-2.24396 -0.22278,-2.8851c0.29704,-1.12198 0.81686,-2.08368 1.33668,-3.04538c0.3713,-0.80142 0.7426,-1.44255 1.18816,-1.9234c0.29704,-0.32057 0.66834,-0.64113 0.96538,-0.64113c1.1139,0 2.15353,0 3.19317,0c1.4852,-0.16028 3.04465,-0.32057 4.52985,-0.32057c0.14852,0 0.29704,0 0.44556,0c0.14852,0 0.29704,0.16028 0.29704,0.16028c0,0.9617 0.07426,1.9234 -0.07426,3.04538zM57.52076,138.12198c-0.7426,1.60283 -1.41094,3.04538 -2.15353,4.48793c-0.44556,0.9617 -0.44556,1.76311 -0.14852,2.8851c1.1139,-1.9234 2.74761,-2.8851 2.30205,-7.37302zM58.85744,150.78435c0.29704,5.44963 0.51982,10.89925 0.3713,16.34888c-0.14852,5.60991 -0.07426,11.3801 -0.14852,17.15029c-0.07426,1.60283 -0.07426,3.20566 0.59408,4.32764c0.22278,0.16028 0.22278,0.80142 0.3713,1.12198c0.22278,0.64113 0.51982,1.12198 0.7426,1.60283c0.07426,0 0.14852,-0.16028 0.22278,-0.16028v-1.60283c-0.07426,-7.85387 -0.14852,-15.86803 -0.14852,-23.88218c0,-2.24396 0,-4.64821 0,-7.05246c-0.07426,-4.48793 -0.59408,-8.97585 -0.3713,-13.62406c0.07426,-0.9617 -0.14852,-1.9234 -0.29704,-2.72481c-0.29704,-1.44255 -1.70797,-1.76311 -2.15353,-0.48085c-0.59408,1.60283 -1.18816,3.04538 -2.00501,3.68651c-0.07426,0 -0.07426,0.16028 -0.07426,0.32057c0.22278,0.16028 0.44556,0.16028 0.66834,0.16028c1.4852,0.32057 2.07927,1.60283 2.22779,4.80849zM27.59408,147.09784c0.89112,-1.9234 1.78223,-4.00708 2.59909,-6.09076c0.14852,-0.32057 0.14852,-1.12198 0.22278,-1.9234c-0.22278,0.16028 -0.29704,0.16028 -0.29704,0.32057c-0.81686,2.08368 -1.70797,4.00708 -2.52483,5.93047c-0.14852,0.32057 -0.14852,0.9617 -0.22278,1.44255c0.07426,0 0.14852,0.16028 0.22278,0.32057zM33.16356,157.8368c0.07426,4.80849 0,9.77727 0,14.74604c-0.07426,3.04538 -0.14852,6.09076 -0.14852,9.29642c-0.07426,6.89217 -0.07426,13.94463 -0.07426,20.8368c0,0.64113 0,1.44255 -0.07426,2.24396c-0.07426,1.60283 -0.14852,3.36595 -0.14852,4.96878c0.44556,0 0.81686,0 1.18816,-0.16028c1.26242,-0.32057 1.33668,-0.48085 1.4852,-3.20566c0.14852,-2.72481 0.14852,-5.28934 0.14852,-7.85387c0,-2.8851 -0.22278,-5.77019 -0.22278,-8.65529c0,-7.37302 0.07426,-14.58576 0.14852,-21.95878c0,-2.40425 0,-4.64821 -0.07426,-6.89217c0,-3.52623 -0.14852,-6.89217 -0.14852,-10.4184c0,-3.68651 -0.3713,-7.05246 -2.00501,-8.81557c-0.59408,-0.80142 -1.41094,-0.9617 -2.15353,-1.12198c-0.22278,0 -0.44556,1.12198 -0.7426,1.76311c-0.7426,1.76311 -1.55945,3.36595 -2.30205,5.12906c0.44556,0 0.89112,0 1.41094,0.16028c1.26242,0.32057 2.59909,0.80142 3.11891,3.68651c0.3713,1.9234 0.51982,4.00708 0.59408,6.25104zM31.82688,215.53872c0.7426,-1.28226 1.18816,-2.72481 0.7426,-4.80849c-0.7426,1.76311 -1.4852,3.68651 -2.30205,5.44963c-0.29704,0.64113 -0.3713,1.44255 -0.29704,2.40425c0.66834,-1.12198 1.26242,-2.08368 1.85649,-3.04538zM33.38634,212.8139c-0.51982,2.72481 -1.41094,4.32764 -2.52483,5.44963c0.14852,0.16028 0.22278,0.16028 0.3713,0.16028c2.45057,-0.16028 4.90114,-0.32057 7.27746,-0.48085c0.22278,0 0.44556,-0.32057 0.59408,-0.64113c0.3713,-1.28226 0.7426,-2.56453 1.1139,-4.00708c-2.30205,-0.16028 -4.60411,-0.32057 -6.8319,-0.48085zM61.01097,217.6224c0.22278,-0.64113 0.44556,-1.12198 0.59408,-1.60283c0.29704,-0.9617 0.59408,-2.08368 0.81686,-3.04538c0.07426,-0.16028 0,-0.80142 -0.07426,-0.9617c-0.7426,-1.60283 -1.55945,-3.36595 -2.37631,-4.96878c-1.26242,-2.40425 -2.52483,-4.96878 -3.71299,-7.53331c-0.51982,-1.28226 -0.89112,-2.72481 -1.41094,-4.00708c-0.96538,-2.24396 -2.00501,-4.48793 -2.97039,-6.89217c-0.96538,-2.08368 -1.78223,-4.48793 -2.74761,-6.73189c-1.70797,-4.16736 -3.49021,-8.17444 -5.19818,-12.18152c-0.3713,-0.9617 -0.81686,-1.76311 -1.26242,-2.72481c-0.66834,-1.44255 -1.41094,-2.72481 -2.07927,-4.16736c-0.59408,-1.44255 -1.18816,-2.8851 -1.85649,-4.48793c-0.07426,0.48085 -0.14852,0.80142 -0.14852,1.12198c-0.07426,2.72481 0,5.60991 -0.07426,8.495c-0.07426,2.24396 0.51982,3.68651 1.18816,5.12906c1.18816,2.40425 2.45057,4.48793 3.41595,7.21274c3.19317,8.495 6.8319,16.34888 10.76767,23.56162c2.30205,4.16736 4.75262,7.85387 6.60912,12.98293c0.14852,0.32057 0.3713,0.48085 0.51982,0.80142zM63.46154,213.61532c0,-0.16028 -0.07426,-0.16028 -0.14852,-0.32057c-0.7426,1.28226 -0.89112,3.68651 -1.85649,4.64821c0.07426,0 0.14852,0.16028 0.14852,0.32057c0.22278,0 0.51982,0 0.59408,-0.32057c0.44556,-1.44255 0.89112,-2.8851 1.26242,-4.32764z" fill="#53ad4e"/><path d="M55.21871,145.495c-0.29704,-1.12198 -0.29704,-1.9234 0.14852,-2.8851c0.7426,-1.44255 1.41094,-2.8851 2.15353,-4.48793c0.44556,4.48793 -1.18816,5.44963 -2.30205,7.37302z" fill="#ffffff"/><path d="M30.49021,139.08368c-0.07426,0.80142 -0.07426,1.60283 -0.22278,1.9234c-0.89112,2.08368 -1.78223,4.16736 -2.67335,6.09076c-0.07426,-0.16028 -0.14852,-0.32057 -0.22278,-0.32057c0.07426,-0.48085 0.07426,-1.12198 0.22278,-1.44255c0.81686,-1.9234 1.70797,-3.84679 2.52483,-5.93047c0.07426,0 0.14852,0 0.3713,-0.32057z" fill="#ffffff"/><path d="M31.82688,215.37843c-0.59408,1.12198 -1.26242,2.08368 -1.93075,3.20566c-0.07426,-0.9617 0,-1.76311 0.29704,-2.40425c0.81686,-1.76311 1.55945,-3.68651 2.30205,-5.44963c0.51982,1.9234 0.07426,3.52623 -0.66834,4.64821z" fill="#ffffff"/><path d="M40.21824,213.29475c-0.3713,1.44255 -0.7426,2.72481 -1.1139,4.00708c-0.14852,0.32057 -0.3713,0.64113 -0.59408,0.64113c-2.37631,0.16028 -4.82688,0.32057 -7.27746,0.48085c-0.14852,0 -0.22278,0 -0.3713,-0.16028c1.1139,-1.12198 2.00501,-2.72481 2.52483,-5.44963c2.22779,0.16028 4.52985,0.32057 6.8319,0.48085z" fill="#ffffff"/><path d="M63.46154,213.61532c-0.44556,1.44255 -0.81686,2.8851 -1.33668,4.32764c-0.07426,0.32057 -0.3713,0.32057 -0.59408,0.32057c0,-0.16028 -0.07426,-0.32057 -0.14852,-0.32057c0.96538,-0.9617 1.1139,-3.36595 1.85649,-4.64821c0.14852,0 0.22278,0.16028 0.22278,0.32057z" fill="#ffffff"/><path d="M60.93671,189.57286v1.60283c-0.07426,0 -0.14852,0.16028 -0.22278,0.16028c-0.22278,-0.48085 -0.51982,-0.9617 -0.7426,-1.60283c-0.14852,-0.32057 -0.14852,-0.9617 -0.3713,-1.12198c-0.66834,-1.12198 -0.66834,-2.72481 -0.59408,-4.32764c0.07426,-5.77019 0,-11.54038 0.14852,-17.15029c0.14852,-5.44963 -0.07426,-10.89925 -0.3713,-16.34888c-0.14852,-3.36595 -0.7426,-4.48793 -2.30205,-4.80849c-0.22278,0 -0.44556,0 -0.66834,-0.16028c0,-0.16028 0,-0.32057 0.07426,-0.32057c0.96538,-0.64113 1.55945,-2.08368 2.15353,-3.68651c0.44556,-1.28226 1.85649,-0.9617 2.15353,0.48085c0.14852,0.80142 0.3713,1.76311 0.29704,2.72481c-0.22278,4.64821 0.29704,9.13614 0.3713,13.62406c0,2.40425 0,4.80849 0,7.05246c0,8.01415 0.07426,15.86803 0.07426,23.88218z" fill="#ffffff"/><path d="M62.42191,213.13447c-0.22278,0.9617 -0.51982,2.08368 -0.81686,3.04538c-0.14852,0.48085 -0.3713,0.9617 -0.59408,1.60283c-0.14852,-0.32057 -0.3713,-0.48085 -0.51982,-0.80142c-1.85649,-5.12906 -4.30707,-8.81557 -6.60912,-12.98293c-3.93577,-7.37302 -7.5745,-15.22689 -10.76767,-23.7219c-0.96538,-2.72481 -2.22779,-4.80849 -3.41595,-7.21274c-0.66834,-1.44255 -1.26242,-2.8851 -1.18816,-5.12906c0.07426,-2.8851 0,-5.77019 0.07426,-8.495c0,-0.32057 0.07426,-0.64113 0.14852,-1.12198c0.66834,1.60283 1.26242,3.04538 1.85649,4.48793c0.66834,1.44255 1.41094,2.72481 2.07927,4.16736c0.44556,0.9617 0.89112,1.76311 1.26242,2.72481c1.70797,4.00708 3.49021,8.01415 5.19818,12.18152c0.96538,2.24396 1.78223,4.64821 2.74761,6.73189c0.96538,2.40425 2.00501,4.64821 2.97039,6.89217c0.51982,1.28226 0.89112,2.72481 1.41094,4.00708c1.18816,2.56453 2.45057,5.12906 3.71299,7.53331c0.81686,1.60283 1.63371,3.36595 2.37631,4.96878c0.14852,0.32057 0.14852,0.80142 0.07426,1.12198z" fill="#ffffff"/><path d="M35.46561,206.40258c-0.14852,2.72481 -0.22278,2.8851 -1.4852,3.20566c-0.3713,0.16028 -0.7426,0.16028 -1.18816,0.16028c0,-1.60283 0.07426,-3.36595 0.14852,-4.96878c0,-0.64113 0,-1.44255 0,-2.08368c0,-6.89217 0,-13.94463 0.07426,-20.8368c0,-3.20566 0.07426,-6.25104 0.14852,-9.29642c0,-4.96878 0.07426,-9.93755 0,-14.74604c0,-2.08368 -0.14852,-4.16736 -0.51982,-6.09076c-0.59408,-3.04538 -1.93075,-3.52623 -3.19317,-3.84679c-0.51982,-0.16028 -0.96538,-0.16028 -1.41094,-0.16028c0.7426,-1.76311 1.55945,-3.36595 2.30205,-5.12906c0.29704,-0.64113 0.51982,-1.76311 0.7426,-1.76311c0.7426,0.16028 1.55945,0.32057 2.15353,1.12198c1.63371,1.76311 2.00501,5.12906 2.00501,8.81557c0,3.52623 0.14852,6.89217 0.14852,10.4184c0.07426,2.24396 0.07426,4.48793 0.07426,6.89217c-0.07426,7.37302 -0.14852,14.58576 -0.14852,21.95878c0,2.8851 0.22278,5.77019 0.22278,8.65529c0.07426,2.40425 0.07426,5.12906 -0.07426,7.69359z" fill="#ffffff"/><path d="M147.74637,217.94296c-0.81686,1.9234 -1.4852,4.00708 -2.97039,3.36595c1.63371,-4.16736 1.63371,-4.16736 2.97039,-3.36595z" fill="#ffffff"/><path d="M129.03291,218.26353c-0.44556,1.9234 -1.93075,3.36595 -3.41595,3.04538c1.1139,-1.76311 2.00501,-3.84679 3.41595,-3.04538z" fill="#ffffff"/><path d="M109.20555,188.8355c-0.29704,4.01476 -1.26242,7.81821 -2.67335,11.41036c-1.1139,2.74694 -2.52483,5.17692 -4.23281,7.1843c-2.07927,2.42998 -4.38133,4.43736 -6.90616,5.70518c-1.78223,0.95087 -3.63873,1.58478 -5.49522,2.32433c-0.14852,0.10565 -0.29704,0.10565 -0.44556,0.10565c-3.04465,0 -6.01504,-0.73956 -8.61413,-3.06389c-2.07927,-1.79607 -4.08429,-3.80345 -5.42096,-6.86735c-1.55945,-3.4865 -2.74761,-7.07865 -2.89613,-11.30471c0,-1.79607 -0.14852,-3.59216 -0.22278,-5.28257c-0.14852,-6.44474 1.78223,-11.51602 4.60411,-16.16468c2.37631,-3.9091 5.3467,-6.65605 8.61413,-8.87473c1.03964,-0.73956 2.22779,-1.05651 3.41595,-1.37347c1.1139,-0.31696 2.22779,-0.63391 3.34169,-0.63391c1.41094,0 2.82187,0.4226 4.15855,0.73956c2.82187,0.52826 4.90114,2.95825 7.05468,5.28257c2.52483,2.85259 3.63873,6.86735 4.82688,10.88211c0.96538,3.16954 1.26242,6.44474 0.89112,9.93124zM84.55131,172.77646c-1.41094,3.80345 -2.45057,7.81821 -2.67335,12.14993c-0.14852,2.85259 -0.22278,5.81083 0.29704,8.66342c0.66834,4.01476 1.78223,7.92386 3.86151,11.09341c1.33668,2.00738 2.59909,3.9091 4.60411,4.54301c1.55945,0.52826 2.97039,0.21131 4.15855,-1.47912c1.63371,-2.32433 2.74761,-5.07127 3.49021,-8.24082c0.66834,-3.16954 1.18816,-6.44474 0.89112,-9.82559c0.22278,-3.6978 -0.22278,-7.28995 -0.81686,-10.77646c-0.3713,-2.21869 -0.81686,-4.43736 -1.55945,-6.44474c-1.26242,-3.16954 -3.04465,-5.17692 -5.64374,-5.38823c-1.70797,-0.21131 -3.26743,0.52826 -4.60411,1.90173c-0.81686,0.95087 -1.4852,2.32433 -2.00501,3.80345zM94.87342,212.92404c-8.68839,0.21131 -14.48065,-7.1843 -17.5253,-16.90425c-2.37631,-11.30471 -0.89112,-21.13031 5.64374,-28.94852c-0.22278,0 -0.29704,0.10565 -0.44556,0.21131c-1.63371,1.37347 -3.19317,3.06389 -4.52985,5.07127c-1.63371,2.42998 -3.26743,4.96563 -4.08429,8.24082c-0.51982,2.00738 -1.03964,3.9091 -1.03964,6.02214c-0.07426,3.38085 0,6.65605 0.44556,9.93124c0.29704,2.32433 0.7426,4.64867 1.70797,6.65605c1.33668,2.64129 2.82187,5.17692 4.67836,7.07865c1.55945,1.58478 3.19317,2.95825 5.04966,3.6978c2.59909,1.05651 5.19818,1.05651 7.72301,-0.10565c0.81686,-0.31696 1.55945,-0.63391 2.37631,-0.95087zM103.33903,180.27772c-0.44556,-3.2752 -1.41094,-6.33909 -2.67335,-9.08603c-1.1139,-2.42998 -2.82187,-3.9091 -4.60411,-5.38823c-1.4852,-1.26782 -2.89613,-1.37347 -4.45559,-0.95087c-1.18816,0.31696 -2.22779,0.84521 -3.19317,1.90173c0.14852,0 0.3713,-0.10565 0.51982,-0.10565c2.00501,-0.52826 3.93577,-0.4226 5.64374,1.37347c1.4852,1.58478 2.74761,3.4865 3.41595,6.12779c0.51982,2.32433 0.96538,4.54301 1.26242,6.86735c0.44556,2.95825 0.81686,5.91648 0.59408,8.98038c-0.14852,1.90173 -0.29704,3.6978 -0.51982,5.59953c-0.22278,1.79607 -0.44556,3.6978 -0.89112,5.28257c-0.96538,3.38085 -2.37631,6.55039 -4.67836,8.87473c1.55945,-0.21131 2.97039,-0.63391 4.08429,-2.11303c0.3713,-0.52826 0.7426,-0.95087 1.1139,-1.37347c1.63371,-1.90173 2.67335,-4.33171 3.26743,-7.1843c1.33668,-6.12779 2.00501,-12.36123 1.1139,-18.80597z" fill="#53ad4e"/><path d="M102.22514,201.19672c-0.59408,2.85259 -1.63371,5.28257 -3.26743,7.1843c-0.3713,0.4226 -0.7426,0.84521 -1.1139,1.37347c-1.1139,1.47912 -2.52483,1.90173 -4.08429,2.11303c2.30205,-2.32433 3.71299,-5.49388 4.67836,-8.87473c0.44556,-1.58478 0.66834,-3.4865 0.89112,-5.28257c0.22278,-1.90173 0.3713,-3.6978 0.51982,-5.59953c0.22278,-3.06389 -0.14852,-6.02214 -0.59408,-8.98038c-0.29704,-2.32433 -0.7426,-4.54301 -1.26242,-6.86735c-0.66834,-2.64129 -1.93075,-4.54301 -3.41595,-6.12779c-1.70797,-1.79607 -3.63873,-1.90173 -5.64374,-1.37347c-0.14852,0 -0.3713,0.10565 -0.51982,0.10565c0.96538,-1.05651 2.00501,-1.58478 3.19317,-1.90173c1.55945,-0.4226 2.97039,-0.31696 4.45559,0.95087c1.78223,1.47912 3.49021,2.95825 4.60411,5.38823c1.26242,2.74694 2.22779,5.81083 2.67335,9.08603c0.89112,6.44474 0.22278,12.67818 -1.1139,18.80597z" fill="#ffffff"/><path d="M94.87342,212.81839c-0.81686,0.31696 -1.55945,0.73956 -2.37631,1.05651c-2.52483,1.16216 -5.12392,1.16216 -7.72301,0.10565c-1.85649,-0.73956 -3.49021,-2.11303 -5.04966,-3.6978c-1.85649,-1.90173 -3.34169,-4.43736 -4.67836,-7.07865c-0.96538,-2.00738 -1.41094,-4.33171 -1.70797,-6.65605c-0.44556,-3.2752 -0.51982,-6.55039 -0.44556,-9.93124c0,-2.11303 0.51982,-4.01476 1.03964,-6.02214c0.81686,-3.2752 2.45057,-5.81083 4.08429,-8.24082c1.33668,-2.00738 2.89613,-3.6978 4.52985,-5.07127c0.14852,-0.10565 0.22278,-0.21131 0.44556,-0.21131c-6.53486,7.81821 -8.02005,17.64381 -5.64374,28.94852c3.04465,9.71994 8.83691,17.11555 17.5253,16.79859z" fill="#ffffff"/><path d="M165.42019,166.85997c0.07426,0.63391 -0.22278,0.63391 -0.59408,0.63391c-1.78223,-0.10565 -3.56447,1.16216 -4.15855,3.06389c-0.3713,1.26782 -0.7426,2.42998 -1.03964,3.6978c-1.18816,5.38823 -2.67335,10.6708 -4.30707,15.74208c-0.89112,2.74694 -1.4852,5.81083 -2.22779,8.66342c-0.59408,2.21869 -1.1139,4.43736 -1.70797,6.65605c-0.66834,2.42998 -1.41094,4.75432 -2.15353,7.07865c-0.07426,0.21131 -0.14852,0.31696 -0.14852,0.4226c-0.29704,2.32433 -1.55945,3.59216 -2.67335,4.96563c-0.22278,0.21131 -0.59408,0.21131 -0.96538,0.21131c-0.51982,0.10565 -0.96538,0 -1.41094,-0.10565c-0.14852,0 -0.29704,-0.21131 -0.3713,-0.31696c-1.03964,-3.4865 -2.15353,-7.07865 -3.19317,-10.6708c-0.22278,-1.05651 -0.29704,-2.11303 -0.51982,-3.16954c-0.44556,-1.90173 -0.89112,-3.59216 -1.26242,-5.49388c-0.51982,-2.74694 -0.96538,-5.49388 -1.41094,-8.13517c-0.07426,-0.10565 -0.07426,-0.31696 -0.14852,-0.73956c-0.07426,0.4226 -0.22278,0.63391 -0.22278,0.84521c-0.44556,2.64129 -1.26242,5.07127 -2.00501,7.60691c-0.96538,3.16954 -1.78223,6.44474 -2.67335,9.71994c-0.66834,2.42998 -1.26242,4.96563 -2.00501,7.28995c-0.22278,0.84521 -0.96538,1.37347 -1.4852,2.11303c-0.81686,1.16216 -1.78223,1.26782 -2.82187,1.05651c0,0 -0.07426,0 -0.14852,0c-1.03964,-0.10565 -0.96538,-0.10565 -1.33668,-1.58478c-0.51982,-2.00738 -1.03964,-3.9091 -1.55945,-5.91648c-0.51982,-2.11303 -0.96538,-4.33171 -1.4852,-6.55039c-0.3713,-1.47912 -0.66834,-2.95825 -0.96538,-4.43736c-1.1139,-4.96563 -2.15353,-9.93124 -3.26743,-14.89687c-0.51982,-2.32433 -0.89112,-4.75432 -1.4852,-7.07865c-0.3713,-1.47912 -0.89112,-2.95825 -1.4852,-4.43736c-0.22278,-0.4226 -0.66834,-0.84521 -1.03964,-0.95087c-0.81686,-0.10565 -1.70797,0 -2.52483,-0.10565c-0.14852,0 -0.44556,-0.21131 -0.44556,-0.4226c0,-0.84521 0,-1.58478 0,-2.21869c0.29704,-0.4226 0.59408,-0.73956 0.7426,-1.05651c0.81686,-1.26782 1.63371,-2.53563 2.45057,-3.9091c0.07426,-0.10565 0.22278,-0.21131 0.29704,-0.21131c1.33668,0.4226 2.67335,-0.21131 3.93577,-0.31696c2.00501,0.21131 3.93577,0.31696 5.94078,0.4226c1.18816,0.10565 1.18816,0 1.1139,1.69042c0,0.31696 -0.07426,0.52826 -0.07426,0.84521c0,0.63391 -0.22278,0.84521 -0.66834,0.84521c-0.51982,0 -1.1139,0.21131 -1.63371,0.4226c-0.59408,0.31696 -0.66834,0.52826 -0.44556,1.47912c0.59408,2.42998 1.1139,4.96563 1.70797,7.50126c0.59408,2.42998 1.26242,4.75432 1.85649,7.1843c1.18816,4.75432 2.30205,9.40299 3.41595,14.1573c0,0.10565 0.07426,0.10565 0.14852,0.31696c0.22278,-0.95087 0.44556,-1.90173 0.7426,-2.85259c0.59408,-1.90173 1.26242,-3.80345 1.85649,-5.70518c0.29704,-1.05651 0.66834,-2.11303 0.96538,-3.16954c0.66834,-2.21869 1.41094,-4.33171 2.07927,-6.55039c0.07426,-0.31696 0.14852,-0.73956 0.07426,-0.95087c-0.3713,-1.69042 -0.81686,-3.2752 -1.26242,-4.96563c-0.22278,-0.73956 -0.51982,-1.47912 -0.7426,-2.21869c-0.3713,-1.05651 -1.03964,-1.58478 -1.85649,-1.58478c-0.81686,-0.10565 -1.55945,-0.10565 -2.37631,-0.10565c-0.14852,0 -0.3713,-0.21131 -0.3713,-0.4226c-0.07426,-0.63391 -0.07426,-1.37347 -0.07426,-2.11303c0,-0.21131 0.22278,-0.4226 0.29704,-0.52826c0.59408,-0.4226 1.26242,-0.95087 1.93075,-1.37347c2.74761,-1.79607 5.64374,-1.47912 8.53987,-1.26782c1.78223,0.10565 3.56447,0 5.3467,0c0.14852,0 0.3713,0.21131 0.3713,0.4226c0.07426,0.63391 0.07426,1.37347 0.07426,2.00738c0,0.95087 -0.14852,0.95087 -0.7426,0.84521c-0.7426,-0.10565 -1.4852,-0.10565 -2.15353,0c-1.1139,0.21131 -1.33668,1.05651 -0.96538,2.53563c0.29704,1.05651 0.51982,2.21869 0.7426,3.2752c0.59408,2.21869 1.1139,4.54301 1.70797,6.86735c1.1139,4.33171 2.15353,8.66342 3.19317,12.99514c0.3713,1.37347 0.66834,2.74694 1.03964,4.43736c0.44556,-1.37347 0.81686,-2.53563 1.1139,-3.80345c1.41094,-5.07127 2.74761,-10.14255 4.08429,-15.21382c0.44556,-1.58478 0.81686,-3.2752 1.18816,-4.96563c0.14852,-0.52826 0.14852,-1.16216 0.07426,-1.79607c0,-0.73956 -0.44556,-1.05651 -0.96538,-1.05651c-0.81686,0 -1.55945,0 -2.37631,0c-0.07426,0 -0.29704,-0.21131 -0.29704,-0.31696c-0.29704,-1.26782 0.07426,-2.74694 0.89112,-3.38085c0.81686,-0.63391 1.70797,-1.26782 2.52483,-1.90173c0.14852,-0.10565 0.29704,-0.21131 0.3713,-0.31696c0.44556,-1.05651 1.1139,-0.73956 1.85649,-0.73956c2.00501,0.10565 4.01003,0 5.94078,0c1.03964,0 2.15353,-0.21131 3.19317,0c0.89112,0.31696 0.29704,1.58478 0.44556,2.00738zM150.86528,170.24082c0.96538,-0.73956 1.93075,-1.47912 2.89613,-2.21869c0.66834,-0.52826 0.81686,-0.84521 0.7426,-2.00738c-0.96538,0.63391 -1.85649,1.37347 -2.74761,1.90173c-1.18816,0.73956 -1.18816,0.73956 -1.1139,2.53563c-0.07426,0 -0.07426,0 0,0c0.07426,0 0.14852,0 0.22278,-0.21131zM128.58735,169.71257c1.03964,-0.73956 2.15353,-1.58478 3.19317,-2.32433c0.7426,-0.52826 0.7426,-0.73956 0.3713,-1.79607c-0.44556,0.4226 -0.89112,0.73956 -1.33668,1.05651c-0.59408,0.4226 -1.18816,0.73956 -1.78223,1.16216c-0.7426,0.63391 -0.81686,0.84521 -0.44556,1.90173zM110.83927,170.87473c0.14852,-0.21131 0.29704,-0.4226 0.44556,-0.52826c0.66834,-1.05651 1.33668,-2.11303 2.00501,-3.06389c0.3713,-0.4226 0.44556,-1.05651 0.29704,-1.90173c-1.03964,1.47912 -1.93075,2.85259 -2.82187,4.22606c-0.14852,0.31696 -0.14852,0.73956 -0.14852,1.16216c0.07426,0 0.14852,0 0.22278,0.10565zM125.1714,217.25576c0.66834,-0.84521 1.26242,-1.47912 1.85649,-2.21869c0.14852,-0.10565 0.22278,-0.63391 0.14852,-0.84521c-0.22278,-1.26782 -0.44556,-2.53563 -0.7426,-3.6978c-0.59408,-2.53563 -1.33668,-4.96563 -1.85649,-7.50126c-1.18816,-5.38823 -2.22779,-10.77646 -3.49021,-16.16468c-0.81686,-3.59216 -2.07927,-7.07865 -3.04465,-10.56515c-0.44556,-1.47912 -0.81686,-3.06389 -1.03964,-4.64867c-0.29704,-1.90173 -1.33668,-3.38085 -2.74761,-3.38085c-0.22278,0 -0.59408,-0.10565 -0.7426,0.10565c-0.7426,0.95087 -1.4852,2.00738 -2.22779,3.06389c0.07426,0.10565 0.14852,0.10565 0.14852,0.10565c0.14852,-0.10565 0.29704,-0.10565 0.44556,-0.10565c1.1139,-0.10565 2.22779,-0.21131 2.82187,1.58478c0.66834,1.90173 1.41094,3.9091 1.85649,6.02214c0.96538,4.22606 1.78223,8.45212 2.67335,12.67818c0.59408,2.85259 1.26242,5.70518 1.85649,8.55777c0.7426,3.38085 1.4852,6.86735 2.30205,10.2482c0.3713,1.58478 0.89112,3.16954 1.33668,4.75432c0.14852,0.63391 0.29704,1.26782 0.44556,2.00738zM129.10717,215.45968c-1.4852,-0.52826 -2.37631,0.84521 -3.41595,2.00738c1.41094,0.31696 2.97039,-0.63391 3.41595,-2.00738zM137.05296,179.74946c0,0 -0.07426,-0.10565 -0.14852,-0.10565c-0.66834,0.73956 -1.78223,0.95087 -2.15353,2.32433c-0.51982,1.90173 -1.03964,3.6978 -1.63371,5.59953c-0.22278,0.63391 -0.3713,1.26782 -0.59408,1.90173c-0.59408,1.79607 -1.26242,3.6978 -1.85649,5.59953c-0.44556,1.58478 -0.89112,3.06389 -1.33668,4.64867c-0.07426,0.21131 -0.07426,0.4226 -0.07426,0.52826c0.29704,1.16216 0.59408,2.42998 0.89112,3.6978c2.37631,-8.13517 4.67836,-16.16468 6.90616,-24.1942zM137.35,178.48164c-0.51982,-2.21869 -1.1139,-4.43736 -1.63371,-6.65605c-0.29704,-1.37347 -0.7426,-2.42998 -1.4852,-3.38085c-0.59408,-0.73956 -1.33668,-0.84521 -2.07927,-0.31696c-0.44556,0.31696 -0.96538,0.63391 -1.41094,0.95087c-0.3713,0.21131 -0.7426,0.52826 -1.1139,0.84521c0.3713,0.21131 0.7426,0.10565 1.1139,0.21131c0.59408,0.21131 1.18816,0.21131 1.63371,0.73956c0.51982,0.52826 0.89112,1.47912 1.18816,2.32433c0.44556,1.47912 0.81686,3.06389 1.26242,4.64867c0.22278,0.63391 0.44556,1.26782 0.66834,2.00738c0.59408,-0.52826 1.18816,-0.95087 1.85649,-1.37347zM144.33042,217.57271c0.22278,-0.4226 0.3713,-0.73956 0.51982,-1.05651c0.3713,-0.73956 0.96538,-1.37347 1.03964,-2.11303c0.07426,-0.73956 -0.44556,-1.47912 -0.66834,-2.32433c-0.89112,-3.38085 -1.70797,-6.7617 -2.52483,-10.14255c-0.96538,-3.9091 -1.93075,-7.81821 -2.89613,-11.83297c-0.44556,-1.79607 -0.89112,-3.59216 -1.33668,-5.49388c-0.14852,0.31696 -0.22278,0.63391 -0.29704,0.95087c-0.51982,1.47912 -0.96538,3.06389 -0.3713,4.75432c0.07426,0.21131 0.07426,0.31696 0.07426,0.52826c0.3713,2.32433 0.7426,4.64867 1.18816,6.86735c0.3713,2.11303 0.89112,4.12041 1.33668,6.12779c0.22278,0.95087 0.29704,2.00738 0.51982,2.95825c0.51982,1.79607 1.03964,3.4865 1.55945,5.28257c0.51982,1.47912 0.96538,3.06389 1.41094,4.54301c0.14852,0.21131 0.22278,0.4226 0.44556,0.95087zM147.82063,215.35403c-1.41094,-0.52826 -1.41094,-0.52826 -2.97039,2.21869c1.41094,0.4226 2.15353,-1.05651 2.97039,-2.21869zM158.21699,168.7617c-1.03964,-0.95087 -2.30205,-0.95087 -3.41595,-0.52826c-1.03964,0.31696 -1.93075,1.47912 -2.97039,2.32433c0.3713,0 0.59408,0 0.81686,0c0.22278,0.10565 0.44556,0.10565 0.66834,0.21131c0.66834,0.21131 1.18816,0.95087 1.18816,1.90173c0,1.05651 -0.14852,2.21869 -0.3713,3.2752c-0.44556,1.90173 -1.03964,3.6978 -1.55945,5.49388c-1.55945,5.70518 -3.11891,11.51602 -4.67836,17.2212c-0.07426,0.31696 -0.22278,0.63391 -0.14852,0.84521c0.3713,1.58478 0.7426,3.16954 1.1139,4.75432c0.07426,0 0.07426,0 0.14852,0c0.14852,-0.52826 0.29704,-1.05651 0.44556,-1.58478c1.4852,-5.38823 2.97039,-10.88211 4.45559,-16.27034c1.1139,-4.22606 2.22779,-8.34647 3.34169,-12.57253c0.3713,-1.37347 0.7426,-2.85259 1.1139,-4.33171c0,-0.21131 -0.07426,-0.73956 -0.14852,-0.73956z" fill="#53ad4e"/><path d="M153.76141,168.12779c-0.96538,0.73956 -1.93075,1.47912 -2.89613,2.21869c-0.07426,0.10565 -0.14852,0.10565 -0.22278,0.10565l-0.07426,-0.10565c0,-1.79607 0,-1.69042 1.18816,-2.42998c0.89112,-0.52826 1.78223,-1.26782 2.74761,-1.90173c0.07426,1.37347 -0.07426,1.58478 -0.7426,2.11303z" fill="#ffffff"/><path d="M131.70626,167.49388c-1.03964,0.73956 -2.15353,1.58478 -3.19317,2.32433c-0.29704,-1.26782 -0.22278,-1.47912 0.51982,-2.00738c0.59408,-0.4226 1.18816,-0.73956 1.78223,-1.16216c0.44556,-0.31696 0.89112,-0.63391 1.33668,-1.05651c0.3713,1.16216 0.29704,1.37347 -0.44556,1.90173z" fill="#ffffff"/><path d="M113.28984,167.28258c-0.66834,0.95087 -1.33668,2.00738 -2.00501,3.06389c-0.14852,0.10565 -0.29704,0.31696 -0.44556,0.52826c-0.07426,0 -0.14852,0 -0.14852,-0.10565c0,-0.4226 0,-0.84521 0.14852,-1.16216c0.89112,-1.37347 1.78223,-2.74694 2.82187,-4.22606c0.07426,0.84521 0,1.47912 -0.3713,1.90173z" fill="#ffffff"/><path d="M137.35,178.37599c-0.59408,0.52826 -1.18816,0.95087 -1.85649,1.47912c-0.22278,-0.73956 -0.44556,-1.37347 -0.66834,-2.00738c-0.44556,-1.58478 -0.81686,-3.16954 -1.26242,-4.64867c-0.29704,-0.84521 -0.66834,-1.79607 -1.18816,-2.32433c-0.44556,-0.52826 -1.03964,-0.52826 -1.63371,-0.73956c-0.3713,-0.10565 -0.7426,0 -1.1139,-0.21131c0.3713,-0.31696 0.7426,-0.63391 1.1139,-0.84521c0.44556,-0.31696 0.96538,-0.63391 1.41094,-0.95087c0.7426,-0.52826 1.4852,-0.4226 2.07927,0.31696c0.7426,0.95087 1.18816,2.00738 1.4852,3.38085c0.44556,2.11303 1.03964,4.33171 1.63371,6.55039z" fill="#ffffff"/><path d="M158.36551,169.50126c-0.3713,1.47912 -0.7426,2.95825 -1.1139,4.33171c-1.1139,4.22606 -2.22779,8.34647 -3.34169,12.57253c-1.4852,5.38823 -2.97039,10.88211 -4.45559,16.27034c-0.14852,0.52826 -0.29704,1.05651 -0.44556,1.58478c-0.07426,0 -0.07426,0 -0.14852,0c-0.3713,-1.58478 -0.7426,-3.16954 -1.1139,-4.75432c-0.07426,-0.21131 0.07426,-0.52826 0.14852,-0.84521c1.55945,-5.70518 3.11891,-11.51602 4.67836,-17.2212c0.51982,-1.79607 1.1139,-3.59216 1.55945,-5.49388c0.22278,-1.05651 0.3713,-2.21869 0.3713,-3.2752c0,-0.95087 -0.51982,-1.69042 -1.18816,-1.90173c-0.22278,-0.10565 -0.44556,-0.10565 -0.66834,-0.21131c-0.22278,0 -0.44556,0 -0.81686,0c1.03964,-0.84521 1.93075,-2.00738 2.97039,-2.32433c1.1139,-0.4226 2.37631,-0.4226 3.41595,0.52826c0.07426,0 0.14852,0.52826 0.14852,0.73956z" fill="#ffffff"/><path d="M145.88987,214.50882c-0.07426,0.73956 -0.66834,1.37347 -1.03964,2.11303c-0.14852,0.31696 -0.29704,0.63391 -0.51982,1.05651c-0.22278,-0.4226 -0.3713,-0.63391 -0.44556,-0.95087c-0.44556,-1.47912 -0.89112,-3.06389 -1.41094,-4.54301c-0.51982,-1.79607 -1.03964,-3.4865 -1.55945,-5.28257c-0.22278,-0.95087 -0.29704,-2.00738 -0.51982,-2.95825c-0.44556,-2.00738 -0.96538,-4.01476 -1.33668,-6.12779c-0.44556,-2.21869 -0.81686,-4.54301 -1.18816,-6.86735c0,-0.21131 0,-0.31696 -0.07426,-0.52826c-0.59408,-1.69042 -0.14852,-3.2752 0.3713,-4.75432c0.07426,-0.31696 0.14852,-0.63391 0.29704,-0.95087c0.44556,1.90173 0.89112,3.6978 1.33668,5.49388c0.96538,4.01476 1.93075,7.92386 2.89613,11.83297c0.81686,3.38085 1.63371,6.7617 2.52483,10.14255c0.22278,0.73956 0.7426,1.58478 0.66834,2.32433z" fill="#ffffff"/><path d="M137.12722,179.74946c-2.30205,8.02952 -4.60411,16.05903 -6.98042,24.29985c-0.29704,-1.26782 -0.59408,-2.53563 -0.89112,-3.6978c0,-0.10565 0,-0.31696 0.07426,-0.52826c0.44556,-1.58478 0.89112,-3.06389 1.33668,-4.64867c0.59408,-1.90173 1.26242,-3.80345 1.85649,-5.59953c0.22278,-0.63391 0.3713,-1.26782 0.59408,-1.90173c0.59408,-1.90173 1.1139,-3.6978 1.63371,-5.59953c0.3713,-1.37347 1.4852,-1.58478 2.15353,-2.32433c0.14852,-0.10565 0.14852,-0.10565 0.22278,0z" fill="#ffffff"/><path d="M126.95364,215.03707c-0.59408,0.73956 -1.18816,1.37347 -1.85649,2.21869c-0.14852,-0.73956 -0.22278,-1.37347 -0.44556,-2.00738c-0.44556,-1.58478 -0.96538,-3.16954 -1.33668,-4.75432c-0.81686,-3.38085 -1.55945,-6.86735 -2.30205,-10.2482c-0.59408,-2.85259 -1.26242,-5.70518 -1.85649,-8.55777c-0.89112,-4.22606 -1.70797,-8.45212 -2.67335,-12.67818c-0.3713,-2.11303 -1.1139,-4.12041 -1.78223,-6.02214c-0.59408,-1.79607 -1.70797,-1.69042 -2.82187,-1.58478c-0.14852,0 -0.29704,0 -0.44556,0.10565c0,0 -0.07426,0 -0.14852,-0.10565c0.7426,-1.05651 1.4852,-2.11303 2.22779,-3.06389c0.14852,-0.21131 0.51982,-0.10565 0.7426,-0.10565c1.41094,0 2.45057,1.47912 2.74761,3.38085c0.22278,1.58478 0.59408,3.16954 1.03964,4.64867c0.96538,3.4865 2.22779,6.973 3.04465,10.56515c1.26242,5.38823 2.30205,10.77646 3.49021,16.16468c0.51982,2.53563 1.26242,4.96563 1.85649,7.50126c0.29704,1.16216 0.51982,2.42998 0.7426,3.6978c0,0.21131 -0.07426,0.63391 -0.22278,0.84521z" fill="#ffffff"/><path d="M217,194.12246c-0.2,1.57203 -0.3,3.14407 -0.5,4.7161c-0.3,2.51525 -0.5,4.87331 -0.7,7.38856c-0.2,1.41483 -0.3,2.82966 -0.6,4.24449c-0.1,0.62881 -0.5,0.94322 -0.7,1.41483c-1.1,1.88644 -2.1,3.93008 -3.2,5.81653c-0.1,0.1572 -0.5,0.31441 -0.7,0.31441c-0.7,0.1572 -1.4,0.1572 -2.1,0.1572c-3.1,0 -6.1,-0.1572 -9.1,-0.1572c-4.4,0 -8.8,0.1572 -13.2,0.1572c-2.8,0.1572 -5.6,0 -8.4,0c-0.5,0 -0.8,-0.31441 -0.8,-1.10042c0,-1.41483 0,-2.67246 0.8,-3.93008c1.1,-1.57203 2.1,-3.45847 3.3,-5.18771c0.3,-0.47161 0.7,-0.47161 1.1,-0.78602c-0.5,-4.40169 -0.2,-8.80339 -0.1,-13.36229c0,-3.45847 0,-6.75975 0,-10.21822c0,-8.48898 0.1,-17.13517 0.1,-25.78136c0,-2.82966 -0.2,-5.81653 -0.2,-8.96059c-0.1,-1.88644 -0.5,-2.35805 -1.7,-2.35805c-0.8,0 -1.5,0.1572 -2.3,0.1572c-0.6,0 -0.8,-0.31441 -0.7,-1.10042c0,-0.1572 0,-0.1572 0,-0.1572c-0.2,-2.04364 0.5,-3.61568 1.4,-5.03051c0.3,-0.47161 0.5,-1.10042 0.8,-1.57203c0.9,-1.57203 1.8,-2.82966 3.4,-2.98686c3.3,0.1572 6.7,0.1572 10,0.1572c0.9,0.1572 1.9,0.1572 2.8,0.31441c0.2,0 0.4,0.62881 0.6,0.94322c0,0.1572 0,0.1572 0,0.31441c0.1,2.20085 0.1,2.35805 -1.2,2.67246c-1.6,0.31441 -2.4,1.10042 -2.4,3.93008c0.1,3.14407 -0.2,6.28814 -0.3,9.4322c-0.1,2.20085 -0.1,4.24449 -0.1,6.28814c-0.1,3.77288 -0.2,7.54576 -0.2,11.31864c-0.1,5.81653 -0.1,11.63305 -0.1,17.44958c0,3.77288 0.1,7.38856 0.1,11.00424c0,1.25763 0,2.51525 -0.1,3.77288c-0.1,1.10042 0.4,1.41483 0.9,1.41483c3.8,-0.1572 7.5,-0.31441 11.3,-0.47161c1.1,-0.1572 2.4,-0.1572 3.5,-0.47161c0.7,-0.1572 1.4,-0.94322 1.7,-1.88644c0.4,-1.10042 0.9,-1.88644 1.4,-2.82966c1,-1.57203 2,-3.30127 2.9,-5.03051c0.8,-1.41483 1.9,-0.94322 2.9,-0.94322c0.1,0 0.3,0.62881 0.4,0.94322zM210.1,203.71186c0.7,-0.47161 1.7,-0.78602 2.2,-1.72924c0.9,-1.88644 1.5,-4.08729 1.5,-6.60254c-1,2.98686 -3.1,4.87331 -3.7,8.33178zM178.1,145.2322c1.2,-2.35805 2.5,-4.40169 3.4,-6.91695c-0.1,-0.1572 -0.2,-0.1572 -0.3,-0.31441c-1,1.41483 -1.8,2.82966 -2.8,4.24449c-0.6,0.94322 -0.7,1.72924 -0.3,2.98686zM182.7,148.37627c0.1,3.77288 0.2,7.54576 0.2,11.31864c0.1,7.38856 0,14.77712 0,22.16568c0,6.60254 -0.1,13.04788 -0.2,19.65042c0,1.72924 0,3.45847 0,5.34492c2.2,-0.31441 2.7,-1.10042 2.7,-4.40169c0,-0.31441 0.1,-0.62881 0.1,-0.94322c0.2,-1.10042 0.4,-2.20085 0.4,-3.30127c-0.1,-8.33178 -0.4,-16.66356 -0.4,-24.99534c-0.1,-8.01737 0.1,-16.19195 0.1,-24.20932c0,-1.57203 -0.1,-3.30127 -0.1,-5.03051c0,-2.82966 -0.2,-3.45847 -2,-3.93008c-0.4,0 -0.8,-0.1572 -1.2,0c-0.3,0.1572 -0.7,0.31441 -0.9,0.78602c-0.9,1.41483 -1.7,3.14407 -2.6,4.87331h1.8c1.4,0 2,0.78602 2.1,2.67246zM180.4,212.82966c1.1,-1.25763 1.3,-2.04364 0.9,-4.24449c-1.2,2.04364 -2.4,4.24449 -3.5,6.28814c-0.1,0.31441 -0.1,0.94322 -0.1,1.25763c1,-1.10042 1.8,-2.20085 2.7,-3.30127zM213.8,210.94322c-10.6,0 -21,0.1572 -31.4,0.1572c-0.9,2.98686 -3.1,3.45847 -4.1,5.97373c0.1,0 0.2,0 0.3,0c4.7,0 9.5,0 14.2,0c2.7,0 5.3,-0.1572 8,-0.1572c3.1,0.1572 6.3,0.31441 9.5,0.31441c0.2,0 0.6,-0.1572 0.7,-0.47161c1,-1.88644 1.9,-3.77288 2.8,-5.81653z" fill="#53ad4e"/><path d="M181.4,138.31525c-0.8,2.51525 -2.1,4.5589 -3.3,6.91695c-0.4,-1.25763 -0.3,-2.04364 0.3,-2.98686c1,-1.41483 1.8,-2.82966 2.8,-4.24449c0,0.1572 0.1,0.31441 0.2,0.31441z" fill="#ffffff"/><path d="M185.8,198.36695c0,1.10042 -0.2,2.20085 -0.4,3.30127c0,0.31441 -0.1,0.62881 -0.1,0.94322c0,3.30127 -0.5,4.08729 -2.7,4.40169c0,-1.88644 0,-3.61568 0,-5.34492c0.1,-6.60254 0.2,-13.04788 0.2,-19.65042c0,-7.38856 0.1,-14.77712 0,-22.16568c0,-3.77288 -0.1,-7.54576 -0.2,-11.31864c0,-2.04364 -0.6,-2.82966 -2,-2.82966h-1.8c0.9,-1.72924 1.7,-3.45847 2.6,-4.87331c0.2,-0.47161 0.6,-0.62881 0.9,-0.78602c0.4,-0.1572 0.8,0 1.2,0c1.8,0.47161 2,1.10042 2,3.93008c0,1.72924 0.1,3.45847 0.1,5.03051c0,8.01737 -0.2,16.19195 -0.1,24.20932c0,8.48898 0.2,16.82076 0.3,25.15254z" fill="#ffffff"/><path d="M180.5,212.82966c-0.9,1.10042 -1.8,2.20085 -2.8,3.30127c0,-0.31441 0,-0.94322 0.1,-1.25763c1.1,-2.04364 2.3,-4.24449 3.5,-6.28814c0.5,2.35805 0.2,3.14407 -0.8,4.24449z" fill="#ffffff"/><path d="M213.8,195.38008c0,2.51525 -0.6,4.7161 -1.5,6.60254c-0.5,0.94322 -1.5,1.25763 -2.2,1.72924c0.6,-3.45847 2.7,-5.34492 3.7,-8.33178z" fill="#ffffff"/><path d="M213.9,210.94322c-1,2.20085 -2,4.08729 -2.9,5.97373c-0.1,0.31441 -0.5,0.47161 -0.7,0.47161c-3.2,0 -6.4,-0.1572 -9.5,-0.31441c-2.7,0 -5.3,0.1572 -8,0.1572c-4.7,0 -9.5,0 -14.2,0c-0.1,0 -0.2,0 -0.3,0c1,-2.51525 3.2,-2.98686 4.1,-5.97373c10.4,-0.31441 20.9,-0.31441 31.5,-0.31441z" fill="#ffffff"/><path d="M250.76677,188.40394c-0.27179,4.0998 -1.15512,7.98383 -2.44613,11.65207c-1.01922,2.80513 -2.31024,5.28659 -3.87304,7.33649c-1.90255,2.48146 -4.00894,4.53136 -6.31918,5.82604c-1.63076,0.97101 -3.32946,1.61834 -5.02816,2.37357c-0.1359,0.10789 -0.27179,0.10789 -0.40769,0.10789c-2.78587,0 -5.5038,-0.75523 -7.88199,-3.1288c-1.90255,-1.83412 -3.73715,-3.88402 -4.96022,-7.01282c-1.42691,-3.56036 -2.51408,-7.2286 -2.64998,-11.54418c0,-1.83412 -0.1359,-3.66824 -0.20384,-5.39448c-0.1359,-6.58126 1.63076,-11.75996 4.21279,-16.5071c2.17434,-3.99191 4.89227,-6.79704 7.88199,-9.06272c0.95127,-0.75523 2.03844,-1.0789 3.12562,-1.40256c1.01922,-0.32367 2.03844,-0.64734 3.05767,-0.64734c1.29101,0 2.58203,0.43156 3.8051,0.75523c2.58203,0.53945 4.48458,3.02091 6.45507,5.39448c2.31024,2.91302 3.32946,7.01282 4.41663,11.11262c0.88333,3.23669 1.15512,6.58126 0.81538,10.14162zM228.20799,172.00473c-1.29101,3.88402 -2.24229,7.98383 -2.44613,12.4073c-0.1359,2.91302 -0.20384,5.93393 0.27179,8.84694c0.61153,4.0998 1.63076,8.09172 3.5333,11.3284c1.22307,2.0499 2.37819,3.99191 4.21279,4.63925c1.42691,0.53945 2.71793,0.21578 3.8051,-1.51045c1.49486,-2.37357 2.51408,-5.1787 3.19356,-8.41538c0.61153,-3.23669 1.08717,-6.58126 0.81538,-10.03373c0.20384,-3.77613 -0.20384,-7.44438 -0.74743,-11.00473c-0.33974,-2.26568 -0.74743,-4.53136 -1.42691,-6.58126c-1.15512,-3.23669 -2.78587,-5.28659 -5.16406,-5.50237c-1.56281,-0.21578 -2.98972,0.53945 -4.21279,1.94201c-0.74743,0.97101 -1.35896,2.37357 -1.8346,3.88402zM237.65278,213.00276c-7.94993,0.21578 -13.24989,-7.33649 -16.03576,-17.26233c-2.17434,-11.54418 -0.81538,-21.57791 5.16406,-29.56174c-0.20384,0 -0.27179,0.10789 -0.40769,0.21578c-1.49486,1.40256 -2.92177,3.1288 -4.14484,5.1787c-1.49486,2.48146 -2.98972,5.07081 -3.73715,8.41538c-0.47564,2.0499 -0.95127,3.99191 -0.95127,6.1497c-0.06795,3.45247 0,6.79704 0.40769,10.14162c0.27179,2.37357 0.67948,4.74714 1.56281,6.79704c1.22307,2.69724 2.58203,5.28659 4.28073,7.2286c1.42691,1.61834 2.92177,3.02091 4.62047,3.77613c2.37819,1.0789 4.75637,1.0789 7.06661,-0.10789c0.74743,-0.32367 1.42691,-0.64734 2.17434,-0.97101zM245.39887,179.66489c-0.40769,-3.34458 -1.29101,-6.47337 -2.44613,-9.2785c-1.01922,-2.48146 -2.58203,-3.99191 -4.21279,-5.50237c-1.35896,-1.29467 -2.64998,-1.40256 -4.07689,-0.97101c-1.08717,0.32367 -2.03844,0.86312 -2.92177,1.94201c0.1359,0 0.33974,-0.10789 0.47564,-0.10789c1.8346,-0.53945 3.60125,-0.43156 5.16406,1.40256c1.35896,1.61834 2.51408,3.56036 3.12562,6.25759c0.47564,2.37357 0.88333,4.63925 1.15512,7.01282c0.40769,3.02091 0.74743,6.04181 0.54359,9.17061c-0.1359,1.94201 -0.27179,3.77613 -0.47564,5.71815c-0.20384,1.83412 -0.40769,3.77613 -0.81538,5.39448c-0.88333,3.45247 -2.17434,6.68915 -4.28073,9.06272c1.42691,-0.21578 2.71793,-0.64734 3.73715,-2.15779c0.33974,-0.53945 0.67948,-0.97101 1.01922,-1.40256c1.49486,-1.94201 2.44613,-4.42347 2.98972,-7.33649c1.22307,-6.25759 1.8346,-12.62308 1.01922,-19.20434z" fill="#53ad4e"/><path d="M244.37965,198.86923c-0.54359,2.91302 -1.49486,5.39448 -2.98972,7.33649c-0.33974,0.43156 -0.67948,0.86312 -1.01922,1.40256c-1.01922,1.51045 -2.31024,1.94201 -3.73715,2.15779c2.10639,-2.37357 3.39741,-5.61026 4.28073,-9.06272c0.40769,-1.61834 0.61153,-3.56036 0.81538,-5.39448c0.20384,-1.94201 0.33974,-3.77613 0.47564,-5.71815c0.20384,-3.1288 -0.1359,-6.1497 -0.54359,-9.17061c-0.27179,-2.37357 -0.67948,-4.63925 -1.15512,-7.01282c-0.61153,-2.69724 -1.76665,-4.63925 -3.12562,-6.25759c-1.56281,-1.83412 -3.32946,-1.94201 -5.16406,-1.40256c-0.1359,0 -0.33974,0.10789 -0.47564,0.10789c0.88333,-1.0789 1.8346,-1.61834 2.92177,-1.94201c1.42691,-0.43156 2.71793,-0.32367 4.07689,0.97101c1.63076,1.51045 3.19356,3.02091 4.21279,5.50237c1.15512,2.80513 2.03844,5.93393 2.44613,9.2785c0.81538,6.58126 0.20384,12.94675 -1.01922,19.20434z" fill="#ffffff"/><path d="M237.65278,212.89487c-0.74743,0.32367 -1.42691,0.75523 -2.17434,1.0789c-2.31024,1.18679 -4.68842,1.18679 -7.06661,0.10789c-1.6987,-0.75523 -3.19356,-2.15779 -4.62047,-3.77613c-1.6987,-1.94201 -3.05767,-4.53136 -4.28073,-7.2286c-0.88333,-2.0499 -1.29101,-4.42347 -1.56281,-6.79704c-0.40769,-3.34458 -0.47564,-6.68915 -0.40769,-10.14162c0,-2.15779 0.47564,-4.0998 0.95127,-6.1497c0.74743,-3.34458 2.24229,-5.93393 3.73715,-8.41538c1.22307,-2.0499 2.64998,-3.77613 4.14484,-5.1787c0.1359,-0.10789 0.20384,-0.21578 0.40769,-0.21578c-5.97944,7.98383 -7.3384,18.01755 -5.16406,29.56174c2.78587,9.92584 8.08583,17.47811 16.03576,17.15444z" fill="#ffffff"/><path d="M290.777,212.94935c-0.62645,0.86076 -1.16341,1.93672 -1.61087,2.90508c-0.26848,0.53798 -0.62645,0.64557 -1.07391,0.64557c-2.32681,-0.1076 -4.56413,-0.21519 -6.89094,-0.32279c-1.61087,-0.1076 -3.22174,-0.1076 -4.83261,-0.1076c-0.71594,0 -0.98442,-0.32279 -0.71594,-1.07595c0.53696,-1.50634 1.16341,-2.90508 1.87935,-4.30382c0.17899,-0.43038 0.80543,-0.53798 1.2529,-0.75317c-0.26848,-1.07595 -0.53696,-2.15191 -0.80543,-3.22786c-0.44746,-1.82912 -0.89493,-3.65825 -1.34239,-5.48737c-0.17899,-0.64557 -0.26848,-1.29115 -0.53696,-1.93672c-0.08949,-0.21519 -0.53696,-0.43038 -0.71594,-0.43038c-4.11667,0.43038 -8.14384,0.32279 -12.17101,0c-0.53696,0 -0.80543,0.21519 -0.98442,0.86076c-0.26848,1.07595 -0.80543,2.15191 -1.16341,3.33546c-0.62645,1.61393 -1.07391,3.33546 -1.61087,4.94939c-0.17899,0.53798 -0.08949,1.07595 0.44746,1.29115c0.44746,0.21519 0.89493,0.32279 1.34239,0.43038c0.80543,0.1076 1.61087,0.32279 2.4163,0.43038c0.44746,0 0.71594,0.43038 0.62645,0.96836c-0.08949,0.75317 -0.26848,1.39874 -0.62645,2.04431c-0.44746,0.86076 -1.07391,1.61393 -1.61087,2.3671c-0.17899,0.21519 -0.53696,0.32279 -0.80543,0.32279c-2.4163,-0.1076 -4.74311,-0.21519 -7.15942,-0.32279c-1.34239,-0.1076 -2.77427,-0.1076 -4.20616,-0.1076c-0.89493,0 -1.2529,-0.64557 -0.89493,-1.72153c0.44746,-1.07595 0.89493,-2.2595 1.34239,-3.33546c0.08949,-0.21519 0.35797,-0.32279 0.62645,-0.43038c0.44746,-0.1076 0.89493,-0.21519 1.34239,-0.21519c1.07391,-0.1076 1.61087,-0.96836 2.05833,-2.04431c1.70036,-4.30382 3.40072,-8.71523 4.29565,-13.44943c0.62645,-3.55065 1.78985,-6.88611 2.95326,-10.22157c0.26848,-0.64557 0.35797,-1.39874 0.62645,-2.15191c0.44746,-1.50634 0.98442,-3.01267 1.52138,-4.51901c0.17899,-0.53798 0.26848,-0.96836 0.44746,-1.50634c0.71594,-2.58229 1.43188,-5.05699 2.14783,-7.63928c0.08949,-0.43038 0.08949,-0.75317 0.26848,-1.07595c0.44746,-0.96836 0.71594,-1.93672 1.2529,-2.68989c0.80543,-1.18355 1.96884,-2.2595 2.77427,-3.76584c0.53696,-1.18355 1.07391,-0.86076 1.78985,-0.43038c0.62645,0.32279 1.34239,0.64557 1.87935,1.07595c0.35797,0.32279 0.62645,0.86076 0.80543,1.29115c1.16341,3.12027 1.70036,6.45573 2.4163,9.79119c0.17899,0.75317 0.53696,1.50634 0.71594,2.2595c0.44746,1.72153 0.80543,3.55065 1.34239,5.37977c0.44746,1.72153 0.98442,3.33546 1.52138,5.05699c0.35797,1.39874 0.71594,2.79748 1.16341,4.19622c0.98442,3.12027 1.96884,6.24054 2.68478,9.4684c0.17899,1.07595 0.71594,2.04431 0.98442,3.12027c0.35797,1.39874 0.62645,2.68989 1.07391,3.98103c0.35797,1.18355 0.98442,2.2595 1.70036,3.22786c0.35797,0.43038 1.16341,0.53798 1.78985,0.53798c0.62645,0 0.80543,0.32279 0.89493,0.96836c0.08949,0.96836 0,1.61393 -0.62645,2.3671zM270.46215,175.07575c0.17899,1.39874 0.62645,2.90508 0.89493,4.30382c0.17899,1.07595 0.26848,2.15191 0.53696,3.12027c0.53696,2.2595 1.07391,4.41141 1.70036,6.56332c0.08949,0.21519 0.26848,0.43038 0.35797,0.43038c0.62645,0 1.16341,0 1.87935,0c-0.08949,-0.43038 -0.17899,-0.64557 -0.26848,-0.86076c-0.53696,-1.93672 -1.16341,-3.65825 -1.70036,-5.59496c-0.71594,-2.4747 -1.2529,-5.16458 -1.96884,-7.74687c-0.26848,-0.96836 -0.71594,-1.93672 -1.07391,-2.90508c0,0 -0.08949,0 -0.17899,0c-0.08949,0.96836 -0.35797,1.82912 -0.17899,2.68989zM272.60998,188.30999c-0.62645,-2.4747 -1.2529,-4.94939 -1.78985,-7.53168c-0.35797,-1.61393 -0.62645,-3.33546 -0.89493,-4.94939c-0.08949,-0.1076 -0.17899,-0.1076 -0.26848,-0.1076c-1.34239,4.51901 -2.68478,9.03802 -4.11667,13.66462c0.35797,0.1076 0.44746,0.1076 0.62645,0.1076c1.96884,0 3.84819,0 5.81703,0c1.07391,0 1.07391,0 0.62645,-1.18355zM250.68426,212.08859c0,-0.1076 -0.08949,-0.1076 -0.17899,-0.1076c-0.08949,0.96836 -0.80543,1.72153 -0.71594,2.79748c0,0.1076 0.08949,0.1076 0.17899,0.1076c0.17899,-0.96836 0.44746,-1.93672 0.71594,-2.79748zM251.84766,212.30378c-0.17899,0 -0.44746,0.1076 -0.53696,0.21519c-0.35797,0.75317 -0.71594,1.50634 -1.07391,2.3671c1.43188,0 2.77427,0 4.02717,0c2.23732,0.1076 4.56413,0.21519 6.80145,0.32279c0.08949,0 0.35797,0 0.44746,-0.1076c0.62645,-0.75317 1.16341,-1.50634 1.70036,-2.2595c-0.08949,0 -0.08949,-0.1076 -0.08949,-0.21519c-0.71594,0 -1.52138,0 -2.32681,0c-2.95326,0 -5.99601,-0.1076 -8.94927,-0.32279zM263.39222,184.75934c0.62645,-1.93672 1.07391,-3.98103 1.70036,-6.02535c0.35797,-1.29115 0.89493,-2.68989 1.34239,-3.98103c0.62645,-2.04431 1.34239,-4.08863 1.96884,-6.13294c0.53696,-1.82912 1.16341,-3.76584 1.70036,-5.59496c-0.08949,0 -0.08949,-0.1076 -0.17899,-0.1076c-0.35797,0.43038 -0.80543,0.75317 -1.07391,1.29115c-0.53696,0.86076 -1.16341,1.72153 -1.43188,2.68989c-0.89493,2.90508 -1.61087,5.91775 -2.4163,8.82283c-0.26848,1.07595 -0.44746,2.04431 -0.80543,3.12027c-0.44746,1.39874 -0.98442,2.79748 -1.43188,4.08863c-0.17899,0.53798 -0.26848,0.96836 -0.44746,1.39874c-0.80543,2.68989 -1.78985,5.27218 -2.4163,7.96206c-1.07391,4.6266 -2.32681,9.14561 -3.93768,13.44943c-0.44746,1.18355 -0.89493,2.2595 -1.34239,3.44305c0.08949,0 0.08949,0.1076 0.17899,0.1076c0.53696,-0.86076 1.07391,-1.72153 1.43188,-2.58229c0.71594,-2.04431 1.34239,-4.08863 2.05833,-6.13294c0.89493,-2.79748 1.78985,-5.48737 2.68478,-8.17725c0.26848,-0.75317 0.35797,-1.50634 0.62645,-2.2595c0.53696,-1.72153 1.16341,-3.55065 1.78985,-5.37977zM277.08461,194.22774c-0.44746,-0.1076 -0.89493,-0.21519 -1.34239,-0.21519c-3.75869,-0.1076 -7.60688,-0.21519 -11.45507,-0.32279c-0.17899,0 -0.44746,0.21519 -0.53696,0.43038c-0.35797,1.18355 -0.62645,2.3671 -0.89493,3.65825c0.62645,0.1076 1.34239,0.21519 1.96884,0.21519c3.57971,0 7.15942,0 10.73913,0c0.17899,0 0.44746,-0.1076 0.53696,-0.32279c0.35797,-1.07595 0.71594,-2.15191 0.98442,-3.44305zM279.32193,209.18351c0.08949,0.43038 0.35797,0.53798 0.71594,0.32279c0.98442,-0.43038 1.43188,-1.29115 1.16341,-2.58229c-0.26848,-1.50634 -0.71594,-3.01267 -1.16341,-4.51901c-0.26848,-1.07595 -0.53696,-2.15191 -0.89493,-3.22786c-0.44746,-1.50634 -0.89493,-3.01267 -1.34239,-4.51901c0,0 -0.08949,0 -0.17899,0c-0.35797,1.29115 -0.71594,2.58229 -1.07391,3.87344c-0.08949,0.1076 0.08949,0.32279 0.08949,0.43038c0.35797,0.96836 0.80543,1.93672 1.07391,3.01267c0.62645,2.3671 1.16341,4.7342 1.61087,7.20889zM276.54766,215.31645c0.44746,-0.96836 0.89493,-2.04431 1.34239,-3.12027c0,-0.1076 -0.08949,-0.43038 -0.26848,-0.86076c-0.44746,1.39874 -0.89493,2.68989 -1.34239,3.87344c0.08949,0.1076 0.17899,0.1076 0.26848,0.1076zM290.24005,212.19618c-0.53696,0.1076 -0.89493,0.1076 -1.34239,0.1076c-0.62645,0 -1.34239,0.1076 -2.05833,0.1076c-2.4163,0 -4.9221,-0.1076 -7.4279,-0.21519c-0.17899,0 -0.53696,0 -0.62645,0.21519c-0.62645,0.86076 -1.07391,1.93672 -1.70036,3.01267c0.44746,0 0.71594,0 1.07391,0c0.89493,0 1.87935,0 2.86377,0c2.32681,0.1076 4.65362,0.21519 6.98043,0.32279c0.17899,0 0.44746,-0.1076 0.53696,-0.32279c0.62645,-0.96836 1.16341,-2.04431 1.70036,-3.22786z" fill="#53ad4e"/><path d="M277.89005,212.30378c-0.44746,1.07595 -0.89493,2.15191 -1.34239,3.12027c-0.08949,0 -0.17899,-0.1076 -0.26848,-0.1076c0.44746,-1.18355 0.89493,-2.4747 1.34239,-3.87344c0.17899,0.32279 0.35797,0.64557 0.26848,0.86076z" fill="#ffffff"/><path d="M290.32954,212.19618c-0.62645,1.18355 -1.16341,2.2595 -1.78985,3.22786c-0.08949,0.21519 -0.35797,0.32279 -0.53696,0.32279c-2.32681,-0.1076 -4.65362,-0.21519 -6.98043,-0.32279c-0.98442,0 -1.96884,0 -2.86377,0c-0.35797,0 -0.62645,0 -1.07391,0c0.62645,-1.07595 1.07391,-2.15191 1.70036,-3.01267c0.08949,-0.21519 0.44746,-0.21519 0.62645,-0.21519c2.5058,0.1076 5.01159,0.21519 7.4279,0.21519c0.71594,0 1.43188,-0.1076 2.05833,-0.1076c0.44746,-0.1076 0.89493,-0.1076 1.43188,-0.1076z" fill="#ffffff"/><path d="M280.12737,209.5063c-0.35797,0.21519 -0.62645,0.1076 -0.71594,-0.32279c-0.53696,-2.3671 -1.07391,-4.7342 -1.70036,-7.20889c-0.26848,-1.07595 -0.71594,-2.04431 -1.07391,-3.01267c0,-0.1076 -0.17899,-0.32279 -0.08949,-0.43038c0.35797,-1.29115 0.71594,-2.58229 1.07391,-3.87344c0.08949,0 0.17899,0 0.17899,0c0.44746,1.50634 0.89493,3.01267 1.34239,4.51901c0.35797,1.07595 0.62645,2.15191 0.89493,3.22786c0.44746,1.50634 0.89493,3.01267 1.16341,4.51901c0.35797,1.29115 -0.08949,2.04431 -1.07391,2.58229z" fill="#ffffff"/><path d="M263.21324,212.94935c-0.53696,0.75317 -1.07391,1.50634 -1.70036,2.2595c-0.08949,0.1076 -0.35797,0.1076 -0.44746,0.1076c-2.23732,-0.21519 -4.56413,-0.32279 -6.80145,-0.43038c-1.2529,0 -2.59529,0 -4.02717,0c0.35797,-0.86076 0.71594,-1.61393 1.07391,-2.3671c0.08949,-0.1076 0.35797,-0.21519 0.53696,-0.21519c2.95326,0.1076 5.99601,0.21519 8.94927,0.32279c0.80543,0 1.61087,0 2.32681,0c0.08949,0.1076 0.08949,0.21519 0.08949,0.32279z" fill="#ffffff"/><path d="M277.17411,194.33534c-0.35797,1.18355 -0.71594,2.2595 -1.07391,3.33546c-0.08949,0.21519 -0.35797,0.32279 -0.53696,0.32279c-3.57971,0 -7.15942,0 -10.73913,0c-0.62645,0 -1.34239,-0.1076 -1.96884,-0.21519c0.26848,-1.29115 0.53696,-2.4747 0.89493,-3.65825c0.08949,-0.21519 0.35797,-0.43038 0.53696,-0.43038c3.84819,0.1076 7.69638,0.21519 11.45507,0.32279c0.53696,0.1076 0.98442,0.21519 1.43188,0.32279z" fill="#ffffff"/><path d="M275.83171,189.49354c-0.71594,0 -1.2529,0 -1.87935,0c-0.08949,0 -0.26848,-0.21519 -0.35797,-0.43038c-0.62645,-2.15191 -1.16341,-4.30382 -1.70036,-6.56332c-0.26848,-0.96836 -0.35797,-2.04431 -0.53696,-3.12027c-0.26848,-1.39874 -0.71594,-2.90508 -0.89493,-4.30382c-0.08949,-0.86076 0.17899,-1.82912 0.26848,-2.68989c0.08949,0 0.17899,0 0.17899,0c0.35797,0.96836 0.80543,1.93672 1.07391,2.90508c0.71594,2.58229 1.2529,5.27218 1.96884,7.74687c0.53696,1.93672 1.16341,3.65825 1.70036,5.59496c0,0.32279 0.08949,0.53798 0.17899,0.86076z" fill="#ffffff"/><path d="M270.10418,163.13266c-0.53696,1.82912 -1.16341,3.76584 -1.70036,5.59496c-0.62645,2.04431 -1.34239,4.08863 -1.96884,6.13294c-0.44746,1.29115 -0.98442,2.68989 -1.34239,3.98103c-0.62645,2.04431 -1.07391,4.08863 -1.70036,6.02535c-0.53696,1.72153 -1.16341,3.55065 -1.70036,5.27218c-0.26848,0.75317 -0.35797,1.50634 -0.62645,2.2595c-0.89493,2.68989 -1.78985,5.37977 -2.68478,8.17725c-0.71594,2.04431 -1.34239,4.08863 -2.05833,6.13294c-0.35797,0.86076 -0.89493,1.72153 -1.43188,2.58229c-0.08949,0 -0.08949,-0.1076 -0.17899,-0.1076c0.44746,-1.18355 0.89493,-2.2595 1.34239,-3.44305c1.61087,-4.30382 2.86377,-8.82283 3.93768,-13.44943c0.62645,-2.68989 1.61087,-5.27218 2.4163,-7.96206c0.17899,-0.43038 0.26848,-0.86076 0.44746,-1.39874c0.44746,-1.29115 0.98442,-2.68989 1.43188,-4.08863c0.35797,-1.07595 0.53696,-2.04431 0.80543,-3.12027c0.80543,-2.90508 1.52138,-5.91775 2.4163,-8.82283c0.26848,-0.96836 0.89493,-1.82912 1.43188,-2.68989c0.26848,-0.53798 0.71594,-0.86076 1.07391,-1.29115c-0.08949,0.1076 0,0.21519 0.08949,0.21519z" fill="#ffffff"/><path d="M332.50547,186.40532c0.07283,1.20456 -0.14565,2.51863 -0.21848,3.8327c-0.14565,3.28517 -0.94674,6.24183 -1.82065,9.19848c-1.01957,3.50418 -2.84022,6.13232 -4.80653,8.43194c-1.74783,2.19011 -3.64131,4.16122 -5.53479,6.02281c-1.3837,1.20456 -2.91305,2.19011 -4.36957,3.06616c-1.09239,0.54753 -2.25761,0.98555 -3.13152,1.31407c-2.47609,0 -4.7337,-0.21901 -6.99131,-0.21901c-2.11196,0 -4.15109,0.10951 -6.26305,0.21901c-1.09239,0.10951 -2.18478,0.21901 -3.27718,0.32852c-0.43696,0 -0.50978,-0.21901 -0.58261,-0.76654c-0.07283,-0.54753 -0.14565,-1.20456 -0.14565,-1.75209c0,-0.32852 0.14565,-0.65703 0.2913,-0.87605c0.80109,-0.98555 1.52935,-1.9711 2.40326,-2.73764c0.65544,-0.65703 0.94674,-1.42357 0.87391,-2.62814c-0.07283,-3.28517 -0.14565,-6.67985 -0.14565,-10.07452c0,-5.14677 0,-10.18403 0.07283,-15.3308c0,-1.8616 0.21848,-3.8327 0.2913,-5.6943c0,-1.20456 -0.14565,-2.40913 -0.14565,-3.61369c0,-0.76654 0,-1.53308 0.07283,-2.29962c0.14565,-1.31407 -0.14565,-1.8616 -1.09239,-1.75209c-0.87391,0.10951 -1.82065,0 -2.69457,-0.10951c-0.14565,0 -0.2913,-0.32852 -0.2913,-0.54753c0,-0.87605 0.07283,-1.8616 0.14565,-2.73764c0,-0.21901 0,-0.32852 0.07283,-0.43802c1.31087,-1.8616 2.54892,-3.72319 3.85979,-5.47529c0.14565,-0.21901 0.50978,-0.43802 0.72826,-0.43802c0.80109,-0.21901 1.52935,-0.32852 2.25761,-0.32852c4.58805,0.10951 9.1761,0.21901 13.76414,0.32852c2.62174,0.10951 5.09783,1.20456 7.42827,2.95665c2.18478,1.64259 4.15109,3.72319 5.60761,6.78935c0.72826,1.64259 1.3837,3.39468 1.82065,5.14677c0.87391,3.28517 1.60218,6.67985 1.82065,10.18403zM295.58261,169.65095c0.21848,-0.32852 0.36413,-0.54753 0.50978,-0.65703c0.87391,-1.20456 1.74783,-2.62814 2.69457,-3.72319c0.58261,-0.76654 0.58261,-1.53308 0.43696,-2.51863c-0.14565,0.10951 -0.21848,0.32852 -0.36413,0.54753c-0.94674,1.20456 -1.82065,2.51863 -2.76739,3.72319c-0.72826,0.87605 -0.80109,0.87605 -0.50978,2.62814zM299.51522,172.4981c-0.07283,0.54753 -0.07283,1.09506 -0.07283,1.64259c0.07283,1.53308 0.21848,3.06616 0.21848,4.59924c0,1.9711 -0.2913,3.94221 -0.2913,5.91331c-0.07283,4.16122 -0.07283,8.32243 -0.07283,12.48365c0,4.48973 0.07283,8.86996 0.07283,13.25019c0,0.10951 0.07283,0.32852 0.07283,0.43802c0.36413,-0.10951 0.80109,-0.21901 1.16522,-0.32852c1.52935,-0.43802 1.82065,-1.20456 1.74783,-3.50418c-0.07283,-1.42357 -0.07283,-2.95665 -0.07283,-4.38023c0,-5.58479 0.14565,-11.16958 0.14565,-16.64487c0,-2.73764 -0.21848,-5.36578 -0.21848,-8.10342c0,-2.62814 0,-5.36578 0,-7.99392c0,-1.42357 0,-2.73764 0,-4.16122c0,-0.87605 -0.2913,-1.42357 -0.87391,-1.42357c-0.65544,0 -1.31087,-0.10951 -1.82065,0.76654c-0.43696,0.76654 -1.09239,1.42357 -1.60218,2.19011c-0.65544,0.98555 -1.31087,1.9711 -2.03913,2.95665c0,0.10951 0.07283,0.21901 0.07283,0.32852c0.72826,0 1.45652,-0.10951 2.18478,-0.21901c1.09239,-0.10951 1.45652,0.54753 1.3837,2.19011zM299.36957,213.45323c0.36413,-0.43802 0.36413,-0.98555 0.14565,-1.64259c-1.01957,1.20456 -2.11196,2.29962 -3.13152,3.50418c-0.72826,0.76654 -0.72826,0.87605 -0.43696,2.29962c1.16522,-1.42357 2.25761,-2.84715 3.42283,-4.16122zM320.63481,212.35817c0,0 -0.07283,-0.10951 -0.07283,-0.21901c-1.3837,0.76654 -2.76739,0.76654 -4.22392,0.65703c-1.01957,0 -1.96631,-0.10951 -2.98587,-0.10951c-2.84022,0 -5.68044,0.10951 -8.59349,0.10951c-1.23804,0.10951 -2.40326,0.21901 -3.56848,0.21901c-0.58261,0 -1.16522,0.21901 -1.52935,0.98555c-0.14565,0.43802 -0.43696,0.65703 -0.72826,0.98555c-0.72826,0.98555 -1.45652,1.8616 -2.25761,2.84715c1.82065,-0.10951 3.56848,-0.32852 5.31631,-0.32852c2.91305,0 5.75327,0.10951 8.59349,0.10951c2.54892,-0.10951 5.025,-0.87605 7.28262,-2.62814c0.94674,-0.76654 1.89348,-1.64259 2.76739,-2.62814zM321.14459,206.22586c1.52935,-2.51863 2.33044,-5.8038 2.69457,-9.08897c0.36413,-2.95665 0.36413,-6.02281 0.43696,-8.97947c0,-1.53308 0,-3.17567 -0.2913,-4.59924c-0.50978,-2.19011 -1.23804,-4.38023 -1.96631,-6.35133c-0.72826,-1.8616 -2.03913,-3.06616 -3.13152,-4.38023c-1.3837,-1.53308 -2.84022,-2.08061 -4.51522,-2.08061c-2.25761,0 -4.4424,-0.10951 -6.70001,-0.10951v0.43802c0.07283,5.36578 0.14565,10.62205 0.14565,15.98783c0,7.00837 -0.07283,13.90722 -0.14565,20.91559c0,1.20456 0.14565,1.42357 0.87391,1.75209c0.21848,0.10951 0.43696,0.10951 0.65544,0.10951c2.18478,0 4.29674,0.10951 6.4087,0c2.11196,-0.10951 3.93261,-1.31407 5.53479,-3.61369zM326.4609,179.72548c-0.72826,-2.84715 -1.675,-5.47529 -2.62174,-8.21293c-1.16522,-3.39468 -3.20435,-5.36578 -5.53479,-6.46084c-2.98587,-1.42357 -6.04457,-0.87605 -9.10327,-0.76654c-0.87391,0 -1.52935,0.98555 -1.52935,2.19011c0,1.09506 0,2.19011 0,3.50418c0.94674,0 1.89348,0 2.91305,0c2.03913,0.10951 4.15109,-0.43802 6.19022,0.32852c1.52935,0.54753 2.84022,1.9711 4.00544,3.50418c1.01957,1.42357 1.74783,3.28517 2.54892,5.03726c0.2913,0.65703 0.58261,1.31407 0.72826,2.08061c0.2913,1.8616 0.65544,3.8327 0.72826,5.8038c0.2913,5.36578 -0.07283,10.73156 -1.675,15.76882c-0.2913,0.87605 -0.65544,1.8616 -1.01957,2.73764c-0.14565,0.32852 -0.21848,0.65703 -0.36413,0.98555c0.07283,0 0.07283,0.10951 0.14565,0.10951c0,-0.10951 0.07283,-0.10951 0.14565,-0.21901c0.14565,-0.21901 0.2913,-0.43802 0.43696,-0.65703c1.52935,-2.40913 2.47609,-5.47529 3.49566,-8.54144c0.14565,-0.43802 0.2913,-1.09506 0.36413,-1.64259c0.2913,-2.40913 0.50978,-4.81825 0.72826,-7.22738c0.21848,-2.84715 0.07283,-5.6943 -0.58261,-8.32243z" fill="#53ad4e"/><path d="M327.04351,188.04791c-0.21848,2.40913 -0.43696,4.81825 -0.72826,7.22738c-0.07283,0.54753 -0.21848,1.20456 -0.36413,1.64259c-1.01957,3.06616 -1.96631,6.13232 -3.49566,8.54144c-0.14565,0.21901 -0.2913,0.43802 -0.43696,0.65703c-0.07283,0.10951 -0.14565,0.10951 -0.14565,0.21901c-0.07283,0 -0.07283,-0.10951 -0.14565,-0.10951c0.14565,-0.32852 0.21848,-0.65703 0.36413,-0.98555c0.36413,-0.87605 0.72826,-1.8616 1.01957,-2.73764c1.60218,-5.03726 1.96631,-10.40304 1.675,-15.76882c-0.07283,-1.9711 -0.43696,-3.94221 -0.72826,-5.8038c-0.14565,-0.76654 -0.43696,-1.42357 -0.72826,-2.08061c-0.80109,-1.75209 -1.52935,-3.61369 -2.54892,-5.03726c-1.16522,-1.53308 -2.47609,-2.95665 -4.00544,-3.50418c-2.03913,-0.76654 -4.15109,-0.21901 -6.19022,-0.32852c-1.01957,0 -1.96631,0 -2.91305,0c0,-1.31407 0,-2.40913 0,-3.50418c0,-1.20456 0.65544,-2.19011 1.52935,-2.19011c3.0587,-0.10951 6.1174,-0.65703 9.10327,0.76654c2.33044,1.09506 4.36957,3.06616 5.53479,6.46084c0.94674,2.73764 1.89348,5.36578 2.62174,8.21293c0.65544,2.62814 0.80109,5.47529 0.58261,8.32243z" fill="#ffffff"/><path d="M320.70763,212.57719c-0.94674,0.76654 -1.82065,1.75209 -2.84022,2.40913c-2.25761,1.75209 -4.7337,2.51863 -7.28262,2.62814c-2.84022,0 -5.68044,-0.10951 -8.59349,-0.10951c-1.74783,0 -3.49566,0.21901 -5.31631,0.32852c0.80109,-0.98555 1.52935,-1.8616 2.25761,-2.84715c0.2913,-0.32852 0.58261,-0.54753 0.72826,-0.98555c0.36413,-0.76654 0.94674,-0.98555 1.52935,-0.98555c1.16522,0 2.33044,-0.10951 3.56848,-0.21901c2.91305,0 5.75327,-0.10951 8.59349,-0.10951c1.01957,0 1.96631,0.10951 2.98587,0.10951c1.45652,0.10951 2.84022,0.10951 4.22392,-0.65703c0.07283,0.21901 0.07283,0.32852 0.14565,0.43802z" fill="#ffffff"/><path d="M299.36957,213.34373c-1.16522,1.42357 -2.25761,2.84715 -3.42283,4.27072c-0.2913,-1.42357 -0.2913,-1.53308 0.43696,-2.29962c1.01957,-1.20456 2.11196,-2.29962 3.13152,-3.50418c0.2913,0.54753 0.21848,1.09506 -0.14565,1.53308z" fill="#ffffff"/><path d="M298.78696,165.27072c-0.94674,1.09506 -1.82065,2.51863 -2.69457,3.72319c-0.14565,0.10951 -0.2913,0.32852 -0.50978,0.65703c-0.2913,-1.75209 -0.21848,-1.75209 0.50978,-2.62814c0.94674,-1.20456 1.82065,-2.51863 2.76739,-3.72319c0.14565,-0.21901 0.21848,-0.43802 0.36413,-0.54753c0.14565,0.98555 0.14565,1.75209 -0.43696,2.51863z" fill="#ffffff"/><path d="M302.35544,207.1019c0.07283,2.29962 -0.21848,3.06616 -1.74783,3.50418c-0.36413,0.10951 -0.80109,0.21901 -1.16522,0.32852c0,-0.10951 -0.07283,-0.32852 -0.07283,-0.43802c0,-4.48973 -0.07283,-8.86996 -0.07283,-13.3597c0,-4.16122 0,-8.32243 0.07283,-12.48365c0,-1.9711 0.2913,-3.94221 0.2913,-5.91331c0,-1.53308 -0.14565,-3.06616 -0.21848,-4.59924c0,-0.54753 0,-1.09506 0.07283,-1.64259c0.07283,-1.64259 -0.2913,-2.29962 -1.3837,-2.19011c-0.72826,0.10951 -1.45652,0.21901 -2.18478,0.21901c0,-0.10951 -0.07283,-0.21901 -0.07283,-0.32852c0.72826,-0.98555 1.3837,-1.9711 2.03913,-2.95665c0.50978,-0.76654 1.16522,-1.42357 1.60218,-2.19011c0.50978,-0.87605 1.16522,-0.76654 1.82065,-0.76654c0.58261,0 0.87391,0.54753 0.87391,1.42357c0,1.42357 0,2.73764 0,4.16122c0,2.62814 0,5.36578 0,7.99392c0,2.73764 0.21848,5.36578 0.21848,8.10342c0,5.47529 -0.14565,11.06008 -0.14565,16.64487c0,1.53308 0,2.95665 0.07283,4.48973z" fill="#ffffff"/><path d="M358.3,209.8c-0.8,1.6 -1.7,3.2 -2.6,4.8c-0.1,0.2 -0.5,0.4 -0.7,0.4c-4.1,-0.1 -8.3,-0.3 -12.4,-0.5c-1,0 -2,-0.3 -3,-0.5c-0.1,0 -0.2,0 -0.3,-0.1c-0.5,-0.4 -0.4,-2.6 0.1,-3c1.3,-1 2.7,-2.1 4,-3.2c0.1,-0.2 0.2,-0.5 0.2,-0.7c0,-2.6 -0.3,-5.1 -0.1,-7.6c0.3,-5.1 -0.3,-10.2 -0.1,-15.3c0.1,-3.8 0.1,-7.5 0.2,-11.3c0,-0.9 0.1,-1.8 0.1,-2.7c0,-0.6 -0.5,-1 -1.1,-1.1c-0.7,-0.2 -1.5,-0.3 -2.3,-0.3c-0.5,0 -0.7,-0.1 -0.7,-0.5c0,-0.8 -0.2,-1.7 0.6,-2.4c1.1,-0.9 2,-2 3,-3c0.5,-0.6 1.2,-0.8 1.9,-0.8c0.9,0 1.7,0 2.5,0v0.3h9.9c0.2,0 0.4,0.1 0.6,0.1c0.6,-0.1 0.8,0.3 0.8,0.9c0,0.6 0.1,1.2 -0.8,1.2c-0.3,0 -0.7,0.1 -1,0.2c-1.1,0.2 -1.7,0.9 -1.7,2c-0.1,0.9 -0.2,1.8 -0.2,2.7c-0.2,3.7 -0.4,7.4 -0.5,11.1c-0.1,3.5 0.1,7 0.1,10.5c0,4.4 0.1,8.9 0.1,13.4c0,0.5 0.1,0.9 0.1,1.4c0.1,1 0.7,1.3 1.6,1.4c0,0 0.1,0 0.2,0c1.8,0.1 2.4,1.1 1.5,2.6zM343.6,164.9c0.7,-0.6 0.6,-1.3 0.5,-2.1c-0.2,0.1 -0.3,0.2 -0.3,0.2c-1,1.2 -2,2.4 -3.1,3.5c-0.5,0.5 -0.6,0.9 -0.5,1.3c1.1,-0.9 2.2,-2 3.4,-2.9zM344.2,169.7c0.1,0.8 0,1.6 0,2.4c0,3.6 -0.2,7.1 -0.2,10.6c0,3.9 0.1,7.8 0.1,11.8c0.1,3.4 0.2,6.8 0.2,10.2c0,0.9 -0.1,1.8 -0.2,2.8c1,-0.1 2.1,0.1 2.8,-0.7c0.5,-0.6 0.9,-1.4 1.1,-2.2c0.2,-1 0.2,-2.1 0.2,-3.2c-0.1,-4.6 -0.3,-9.3 -0.4,-13.9c-0.1,-7.1 -0.1,-14.3 -0.2,-21.4c0,-1.3 -0.3,-1.7 -1.6,-1.7c-0.6,0 -1.1,0.1 -1.6,0.6c-1,1.1 -2.2,2 -3.4,3c0,0 0.1,0.1 0.1,0.2c0.4,0 0.9,-0.1 1.3,0c0.9,0.1 1.7,0.5 1.8,1.5zM342.8,210.5c0.6,-0.5 1.3,-1.2 0.9,-2.1c-1.1,0.9 -2.2,1.9 -3.4,2.8c-0.7,0.5 -0.7,1 -0.7,1.8c1.1,-0.8 2.2,-1.6 3.2,-2.5zM357.7,210.1c-4.6,-0.2 -9,-0.4 -13.4,-0.6c-0.6,2.1 -2.8,2.7 -4,4.2c1.1,0.1 2.1,0.3 3.1,0.3c3.8,0.1 7.6,0.3 11.4,0.4c0.2,0 0.6,-0.3 0.7,-0.5c0.6,-0.9 1.1,-1.9 1.7,-2.9c0.2,-0.3 0.3,-0.6 0.5,-0.9z" fill="#53ad4e"/><path d="M343.5,164.9c-1.2,0.9 -2.2,2 -3.3,2.9c-0.1,-0.4 0,-0.8 0.5,-1.3c1.1,-1.1 2.1,-2.3 3.1,-3.5c0,0 0.1,-0.1 0.3,-0.2c0.1,0.8 0.1,1.5 -0.6,2.1z" fill="#ffffff"/><path d="M342.8,210.5c-1,0.9 -2.1,1.6 -3.2,2.5c0,-0.8 0,-1.3 0.7,-1.8c1.2,-0.9 2.3,-1.9 3.4,-2.8c0.4,0.9 -0.3,1.6 -0.9,2.1z" fill="#ffffff"/><path d="M357.7,210c-0.2,0.4 -0.3,0.7 -0.5,1c-0.6,1 -1.1,2 -1.7,2.9c-0.1,0.2 -0.5,0.5 -0.7,0.5c-3.8,-0.1 -7.6,-0.3 -11.4,-0.4c-1,0 -2,-0.2 -3.1,-0.3c1.2,-1.5 3.4,-2.1 4,-4.2c4.5,0.1 8.9,0.3 13.4,0.5z" fill="#ffffff"/><path d="M348,204.6c-0.2,0.8 -0.6,1.6 -1.1,2.2c-0.7,0.8 -1.8,0.6 -2.8,0.7c0.1,-1 0.2,-1.9 0.2,-2.8c0,-3.4 -0.1,-6.8 -0.2,-10.2c0,-4 -0.1,-7.9 -0.1,-11.8c0,-3.5 0.2,-7 0.2,-10.6c0,-0.8 0.1,-1.6 0,-2.4c-0.1,-1 -0.9,-1.4 -1.9,-1.5c-0.4,-0.1 -0.9,0 -1.3,0c0.1,-0.1 0,-0.2 0,-0.2c1.2,-1 2.4,-1.9 3.4,-3c0.5,-0.5 1,-0.6 1.6,-0.6c1.3,0 1.6,0.4 1.6,1.7c0.1,7.1 0.1,14.3 0.2,21.4c0.1,4.6 0.3,9.3 0.4,13.9c0,1.1 0,2.1 -0.2,3.2z" fill="#ffffff"/><path d="M408.12818,160.38488c0,0.22713 -0.30982,0.45426 -0.46473,0.45426c-0.38727,0.11357 -0.852,0.11357 -1.31672,0.22713c-0.69709,0.11357 -0.92945,0.45426 -1.0069,1.47636c-0.07745,1.58992 0,3.06628 0.15491,4.54264c0.46473,3.86124 0.46473,7.72248 0.23236,11.58372c-0.38727,6.58682 -0.30982,13.28721 -0.15491,19.9876c0.07745,3.74767 0.15491,7.49535 0.23236,11.24302c0,1.93062 -0.69709,3.52054 -1.39418,5.11047c-0.38727,0.90853 -0.69709,1.13566 -1.39418,1.13566c-0.69709,0 -1.08436,-0.45426 -1.47163,-1.13566c-2.24617,-3.63411 -4.80216,-6.58682 -7.35815,-9.6531c-4.02762,-4.88333 -7.66797,-10.3345 -10.92104,-16.23992c-1.16181,-2.04419 -2.55599,-3.86124 -3.87271,-5.79186c-0.15491,0 -0.23236,0 -0.30982,0.11357c0,1.13566 0.07745,2.27132 0,3.40698c-0.38727,5.3376 0.30982,10.56163 0.23236,15.89922c0,1.70349 -0.23236,3.40698 -0.07745,5.11047c0.07745,0.79496 0.30982,1.24922 0.852,1.36279c0.38727,0.11357 0.852,0.22713 1.31672,0.22713c0.30982,0 0.46473,0.22713 0.46473,0.79496c0.07745,0.90853 -0.15491,1.70349 -0.54218,2.38488c-0.46473,0.79496 -0.77454,1.70349 -1.16181,2.61202c-0.23236,0.56783 -0.54218,1.02209 -1.0069,1.02209c-2.09126,0.11357 -4.25998,0.22713 -6.35124,0.3407c-0.852,0 -1.70399,-0.11357 -2.55599,-0.11357c-0.54218,0 -0.77454,-0.3407 -0.77454,-1.13566c0,-0.79496 0.15491,-1.58992 0.61963,-2.15775c0.77454,-1.02209 1.54908,-2.15775 2.16872,-3.17984c0.15491,-0.22713 0.30982,-0.6814 0.30982,-1.02209c0.07745,-0.6814 -0.07745,-1.36279 -0.07745,-2.04419c0,-0.45426 0.07745,-1.02209 0.15491,-1.58992c0.07745,-0.3407 0.07745,-0.6814 0.07745,-1.02209c0.07745,-5.22403 0.15491,-10.56163 0.15491,-15.78566c0,-4.6562 0,-9.3124 0,-13.85504c0,-1.47636 -0.07745,-2.95271 -0.15491,-4.3155c-0.07745,-1.93062 -0.92945,-3.17984 -2.24617,-3.52054c-1.0069,-0.22713 -2.09126,-0.3407 -3.17562,-0.56783c-0.07745,0 -0.30982,-0.3407 -0.30982,-0.45426c0,-0.6814 0,-1.24922 0.07745,-1.93062c0,-0.11357 0.07745,-0.3407 0.07745,-0.3407c1.0069,-1.58992 1.93636,-3.17984 2.86581,-4.6562c0.07745,-0.22713 0.07745,-0.45426 0.15491,-0.90853c1.16181,0.11357 2.32363,0.11357 3.48544,0.45426c1.78145,0.22713 3.40798,1.13566 4.95707,2.49845c0.23236,0.11357 0.38727,0.3407 0.54218,0.56783c1.31672,2.04419 2.55599,3.97481 3.87271,6.01899c0.77454,1.36279 1.54908,2.61202 2.40108,3.86124c1.39418,1.93062 2.86581,3.86124 4.25998,5.90543c1.47163,2.15775 2.78835,4.3155 4.18253,6.47326c1.47163,2.27132 2.94326,4.42907 4.41489,6.58682c0.46473,0.79496 1.0069,1.58992 1.62654,2.49845c0.07745,-1.58992 0.15491,-2.95271 0.15491,-4.3155c0.07745,-4.20194 0.23236,-8.51744 0.15491,-12.71938c0,-2.83915 -0.30982,-5.79186 -0.46473,-8.63101c-0.07745,-1.02209 -0.46473,-1.70349 -1.16181,-1.81705c-0.69709,-0.22713 -1.31672,-0.22713 -2.01381,-0.22713c-0.38727,0 -0.54218,-0.11357 -0.61963,-0.6814c0,-0.11357 0,-0.11357 0,-0.11357c-0.07745,-0.6814 -0.38727,-1.58992 -0.23236,-2.04419c0.30982,-0.79496 0.852,-1.47636 1.39418,-2.15775c0.38727,-0.56783 0.77454,-1.02209 1.23927,-1.36279c0.30982,-0.22713 0.69709,-0.45426 1.0069,-0.45426c1.16181,0 2.24617,0 3.33053,0c1.54908,-0.11357 3.17562,-0.22713 4.72471,-0.22713c0.15491,0 0.30982,0 0.46473,0c0.15491,0 0.30982,0.11357 0.30982,0.11357c0,0.6814 0.07745,1.36279 -0.07745,2.15775zM398.83368,158.79496c-0.77454,1.13566 -1.47163,2.15775 -2.24617,3.17984c-0.46473,0.6814 -0.46473,1.24922 -0.15491,2.04419c1.16181,-1.36279 2.86581,-2.04419 2.40108,-5.22403zM400.22785,167.76667c0.30982,3.86124 0.54218,7.72248 0.38727,11.58372c-0.15491,3.97481 -0.07745,8.06318 -0.15491,12.15155c-0.07745,1.13566 -0.07745,2.27132 0.61963,3.06628c0.23236,0.11357 0.23236,0.56783 0.38727,0.79496c0.23236,0.45426 0.54218,0.79496 0.77454,1.13566c0.07745,0 0.15491,-0.11357 0.23236,-0.11357v-1.13566c-0.07745,-5.56473 -0.15491,-11.24302 -0.15491,-16.92132c0,-1.58992 0,-3.29341 0,-4.9969c-0.07745,-3.17984 -0.61963,-6.35969 -0.38727,-9.6531c0.07745,-0.6814 -0.15491,-1.36279 -0.30982,-1.93062c-0.30982,-1.02209 -1.78145,-1.24922 -2.24617,-0.3407c-0.61963,1.13566 -1.23927,2.15775 -2.09126,2.61202c-0.07745,0 -0.07745,0.11357 -0.07745,0.22713c0.23236,0.11357 0.46473,0.11357 0.69709,0.11357c1.54908,0.22713 2.16872,1.13566 2.32363,3.40698zM367.61963,165.15465c0.92945,-1.36279 1.8589,-2.83915 2.7109,-4.3155c0.15491,-0.22713 0.15491,-0.79496 0.23236,-1.36279c-0.23236,0.11357 -0.30982,0.11357 -0.30982,0.22713c-0.852,1.47636 -1.78145,2.83915 -2.63344,4.20194c-0.15491,0.22713 -0.15491,0.6814 -0.23236,1.02209c0.07745,0 0.15491,0.11357 0.23236,0.22713zM373.4287,172.76357c0.07745,3.40698 0,6.92752 0,10.44806c-0.07745,2.15775 -0.15491,4.3155 -0.15491,6.58682c-0.07745,4.88333 -0.07745,9.88023 -0.07745,14.76357c0,0.45426 0,1.02209 -0.07745,1.58992c-0.07745,1.13566 -0.15491,2.38488 -0.15491,3.52054c0.46473,0 0.852,0 1.23927,-0.11357c1.31672,-0.22713 1.39418,-0.3407 1.54908,-2.27132c0.15491,-1.93062 0.15491,-3.74767 0.15491,-5.56473c0,-2.04419 -0.23236,-4.08837 -0.23236,-6.13256c0,-5.22403 0.07745,-10.3345 0.15491,-15.55853c0,-1.70349 0,-3.29341 -0.07745,-4.88333c0,-2.49845 -0.15491,-4.88333 -0.15491,-7.38178c0,-2.61202 -0.38727,-4.9969 -2.09126,-6.24612c-0.61963,-0.56783 -1.47163,-0.6814 -2.24617,-0.79496c-0.23236,0 -0.46473,0.79496 -0.77454,1.24922c-0.77454,1.24922 -1.62654,2.38488 -2.40108,3.63411c0.46473,0 0.92945,0 1.47163,0.11357c1.31672,0.22713 2.7109,0.56783 3.25308,2.61202c0.38727,1.36279 0.54218,2.83915 0.61963,4.42907zM372.03452,213.64729c0.77454,-0.90853 1.23927,-1.93062 0.77454,-3.40698c-0.77454,1.24922 -1.54908,2.61202 -2.40108,3.86124c-0.30982,0.45426 -0.38727,1.02209 -0.30982,1.70349c0.69709,-0.79496 1.31672,-1.47636 1.93636,-2.15775zM373.66106,211.71667c-0.54218,1.93062 -1.47163,3.06628 -2.63344,3.86124c0.15491,0.11357 0.23236,0.11357 0.38727,0.11357c2.55599,-0.11357 5.11198,-0.22713 7.59051,-0.3407c0.23236,0 0.46473,-0.22713 0.61963,-0.45426c0.38727,-0.90853 0.77454,-1.81705 1.16181,-2.83915c-2.40108,-0.11357 -4.80216,-0.22713 -7.12579,-0.3407zM402.47403,215.12364c0.23236,-0.45426 0.46473,-0.79496 0.61963,-1.13566c0.30982,-0.6814 0.61963,-1.47636 0.852,-2.15775c0.07745,-0.11357 0,-0.56783 -0.07745,-0.6814c-0.77454,-1.13566 -1.62654,-2.38488 -2.47853,-3.52054c-1.31672,-1.70349 -2.63344,-3.52054 -3.87271,-5.3376c-0.54218,-0.90853 -0.92945,-1.93062 -1.47163,-2.83915c-1.0069,-1.58992 -2.09126,-3.17984 -3.09817,-4.88333c-1.0069,-1.47636 -1.8589,-3.17984 -2.86581,-4.76977c-1.78145,-2.95271 -3.64035,-5.79186 -5.42179,-8.63101c-0.38727,-0.6814 -0.852,-1.24922 -1.31672,-1.93062c-0.69709,-1.02209 -1.47163,-1.93062 -2.16872,-2.95271c-0.61963,-1.02209 -1.23927,-2.04419 -1.93636,-3.17984c-0.07745,0.3407 -0.15491,0.56783 -0.15491,0.79496c-0.07745,1.93062 0,3.97481 -0.07745,6.01899c-0.07745,1.58992 0.54218,2.61202 1.23927,3.63411c1.23927,1.70349 2.55599,3.17984 3.56289,5.11047c3.33053,6.01899 7.12579,11.58372 11.23086,16.69419c2.40108,2.95271 4.95707,5.56473 6.89342,9.19884c0.15491,0.22713 0.38727,0.3407 0.54218,0.56783zM405.03001,212.2845c0,-0.11357 -0.07745,-0.11357 -0.15491,-0.22713c-0.77454,0.90853 -0.92945,2.61202 -1.93636,3.29341c0.07745,0 0.15491,0.11357 0.15491,0.22713c0.23236,0 0.54218,0 0.61963,-0.22713c0.46473,-1.02209 0.92945,-2.04419 1.31672,-3.06628z" fill="#53ad4e"/><path d="M396.4326,164.01899c-0.30982,-0.79496 -0.30982,-1.36279 0.15491,-2.04419c0.77454,-1.02209 1.47163,-2.04419 2.24617,-3.17984c0.46473,3.17984 -1.23927,3.86124 -2.40108,5.22403z" fill="#ffffff"/><path d="M370.64035,157.47636c-0.07745,0.56783 -0.07745,1.13566 -0.23236,1.36279c-0.92945,1.47636 -1.8589,2.95271 -2.78835,4.3155c-0.07745,-0.11357 -0.15491,-0.22713 -0.23236,-0.22713c0.07745,-0.3407 0.07745,-0.79496 0.23236,-1.02209c0.852,-1.36279 1.78145,-2.72558 2.63344,-4.20194c0.07745,0 0.15491,0 0.38727,-0.22713z" fill="#ffffff"/><path d="M372.03452,211.53372c-0.61963,0.79496 -1.31672,1.47636 -2.01381,2.27132c-0.07745,-0.6814 0,-1.24922 0.30982,-1.70349c0.852,-1.24922 1.62654,-2.61202 2.40108,-3.86124c0.54218,1.36279 0.07745,2.49845 -0.69709,3.29341z" fill="#ffffff"/><path d="M380.78685,210.05736c-0.38727,1.02209 -0.77454,1.93062 -1.16181,2.83915c-0.15491,0.22713 -0.38727,0.45426 -0.61963,0.45426c-2.47853,0.11357 -5.03452,0.22713 -7.59051,0.3407c-0.15491,0 -0.23236,0 -0.38727,-0.11357c1.16181,-0.79496 2.09126,-1.93062 2.63344,-3.86124c2.32363,0.11357 4.72471,0.22713 7.12579,0.3407z" fill="#ffffff"/><path d="M405.03001,212.2845c-0.46473,1.02209 -0.852,2.04419 -1.39418,3.06628c-0.07745,0.22713 -0.38727,0.22713 -0.61963,0.22713c0,-0.11357 -0.07745,-0.22713 -0.15491,-0.22713c1.0069,-0.6814 1.16181,-2.38488 1.93636,-3.29341c0.15491,0 0.23236,0.11357 0.23236,0.22713z" fill="#ffffff"/><path d="M402.39657,195.24961v1.13566c-0.07745,0 -0.15491,0.11357 -0.23236,0.11357c-0.23236,-0.3407 -0.54218,-0.6814 -0.77454,-1.13566c-0.15491,-0.22713 -0.15491,-0.6814 -0.38727,-0.79496c-0.69709,-0.79496 -0.69709,-1.93062 -0.61963,-3.06628c0.07745,-4.08837 0,-8.17674 0.15491,-12.15155c0.15491,-3.86124 -0.07745,-7.72248 -0.38727,-11.58372c-0.15491,-2.38488 -0.77454,-3.17984 -2.40108,-3.40698c-0.23236,0 -0.46473,0 -0.69709,-0.11357c0,-0.11357 0,-0.22713 0.07745,-0.22713c1.0069,-0.45426 1.62654,-1.47636 2.24617,-2.61202c0.46473,-0.90853 1.93636,-0.6814 2.24617,0.3407c0.15491,0.56783 0.38727,1.24922 0.30982,1.93062c-0.23236,3.29341 0.30982,6.47326 0.38727,9.6531c0,1.70349 0,3.40698 0,4.9969c0,5.67829 0.07745,11.24302 0.07745,16.92132z" fill="#ffffff"/><path d="M403.94566,211.9438c-0.23236,0.6814 -0.54218,1.47636 -0.852,2.15775c-0.15491,0.3407 -0.38727,0.6814 -0.61963,1.13566c-0.15491,-0.22713 -0.38727,-0.3407 -0.54218,-0.56783c-1.93636,-3.63411 -4.49234,-6.24612 -6.89342,-9.19884c-4.10507,-5.22403 -7.90033,-10.78876 -11.23086,-16.80775c-1.0069,-1.93062 -2.32363,-3.40698 -3.56289,-5.11047c-0.69709,-1.02209 -1.31672,-2.04419 -1.23927,-3.63411c0.07745,-2.04419 0,-4.08837 0.07745,-6.01899c0,-0.22713 0.07745,-0.45426 0.15491,-0.79496c0.69709,1.13566 1.31672,2.15775 1.93636,3.17984c0.69709,1.02209 1.47163,1.93062 2.16872,2.95271c0.46473,0.6814 0.92945,1.24922 1.31672,1.93062c1.78145,2.83915 3.64035,5.67829 5.42179,8.63101c1.0069,1.58992 1.8589,3.29341 2.86581,4.76977c1.0069,1.70349 2.09126,3.29341 3.09817,4.88333c0.54218,0.90853 0.92945,1.93062 1.47163,2.83915c1.23927,1.81705 2.55599,3.63411 3.87271,5.3376c0.852,1.13566 1.70399,2.38488 2.47853,3.52054c0.15491,0.22713 0.15491,0.56783 0.07745,0.79496z" fill="#ffffff"/><path d="M375.82978,205.17403c-0.15491,1.93062 -0.23236,2.04419 -1.54908,2.27132c-0.38727,0.11357 -0.77454,0.11357 -1.23927,0.11357c0,-1.13566 0.07745,-2.38488 0.15491,-3.52054c0,-0.45426 0,-1.02209 0,-1.47636c0,-4.88333 0,-9.88023 0.07745,-14.76357c0,-2.27132 0.07745,-4.42907 0.15491,-6.58682c0,-3.52054 0.07745,-7.04109 0,-10.44806c0,-1.47636 -0.15491,-2.95271 -0.54218,-4.3155c-0.61963,-2.15775 -2.01381,-2.49845 -3.33053,-2.72558c-0.54218,-0.11357 -1.0069,-0.11357 -1.47163,-0.11357c0.77454,-1.24922 1.62654,-2.38488 2.40108,-3.63411c0.30982,-0.45426 0.54218,-1.24922 0.77454,-1.24922c0.77454,0.11357 1.62654,0.22713 2.24617,0.79496c1.70399,1.24922 2.09126,3.63411 2.09126,6.24612c0,2.49845 0.15491,4.88333 0.15491,7.38178c0.07745,1.58992 0.07745,3.17984 0.07745,4.88333c-0.07745,5.22403 -0.15491,10.3345 -0.15491,15.55853c0,2.04419 0.23236,4.08837 0.23236,6.13256c0.07745,1.70349 0.07745,3.63411 -0.07745,5.45116z" fill="#ffffff"/><path d="M451.71276,187.74103c-0.08291,0.83552 -0.24872,1.1936 -0.82905,1.1936c-1.82392,-0.11936 -2.48716,1.7904 -2.48716,3.5808c-0.08291,1.90976 0.08291,3.81952 0.16581,5.72927c0.08291,2.14848 0.08291,4.1776 0,6.32607c0,0.83552 -0.41453,1.90976 -0.82905,2.50656c-2.73588,3.81952 -5.38885,7.75839 -9.11959,9.31007c-2.48716,1.07424 -5.14013,1.67104 -7.7931,1.07424c-1.24358,-0.23872 -2.65297,-0.47744 -3.89655,-0.95488c-0.99486,-0.47744 -1.82392,-1.1936 -2.73588,-1.7904c-0.24872,-0.23872 -0.58034,-0.47744 -0.82905,-0.5968c-1.90682,-0.83552 -3.23331,-2.74528 -4.39398,-5.01311c-1.65811,-3.22272 -3.31621,-6.44543 -4.22817,-10.26495c-0.99486,-4.29696 -1.90682,-8.59391 -1.74101,-14.32319c0,-2.50656 0.41453,-5.96799 1.65811,-9.19071c1.16067,-3.22272 2.57007,-6.44543 4.72561,-8.71327c1.98973,-2.26784 4.14527,-4.41632 6.38371,-6.32607c1.98973,-2.02912 4.31108,-2.86464 6.63243,-3.46144c1.24358,-0.35808 2.48716,-0.83552 3.73074,-0.71616c1.4923,0 3.0675,0.47744 4.55979,0.95488c0.91196,0.23872 1.65811,0.35808 2.48716,-0.35808c1.07777,-0.95488 2.23844,-0.5968 3.39912,-0.5968c0.08291,0 0.33162,0.35808 0.33162,0.5968c0.08291,3.81952 0.08291,7.63903 0.16581,11.33919c0,0.95488 -0.24872,1.67104 -0.74615,2.26784c-0.66324,0.83552 -1.16067,1.7904 -1.82392,2.62592c-0.16581,0.23872 -0.41453,0.47744 -0.66324,0.47744c-0.82905,0.11936 -1.65811,0.11936 -2.48716,0.11936c-0.24872,0 -0.58034,-0.23872 -0.66324,-0.47744c-0.49743,-1.31296 -0.82905,-2.62592 -1.40939,-3.81952c-2.07263,-4.53568 -5.88628,-5.72927 -9.11959,-4.1776c-2.23844,0.95488 -3.64784,3.34208 -5.05723,5.72927c-1.65811,2.86464 -1.98973,6.44543 -2.32135,9.90687c-0.33162,3.93888 -0.24872,7.99711 0.58034,11.81663c0.66324,2.86464 1.24358,5.72927 2.32135,8.11647c1.5752,3.70016 3.64784,6.80351 6.79824,7.75839c2.48716,0.71616 4.89142,-0.23872 7.04696,-1.90976c0.91196,-0.71616 1.40939,-2.02912 1.40939,-3.46144c0,-2.3872 -0.08291,-4.65504 -0.24872,-7.04223c-0.08291,-1.07424 -0.66324,-1.55168 -1.4923,-1.55168c-0.91196,0.11936 -1.90682,0.11936 -2.81878,0.23872c-0.49743,0 -0.82905,-0.11936 -0.82905,-0.95488c0,-0.11936 0,-0.23872 0,-0.23872c-0.66324,-1.67104 0,-2.74528 0.82905,-3.81952c0.74615,-0.95488 1.5752,-1.90976 2.23844,-2.984c0.66324,-0.95488 1.5752,-0.83552 2.32135,-0.83552c3.1504,-0.23872 6.30081,-0.35808 9.45121,-0.47744c1.40939,0 1.4923,0.23872 1.32649,2.3872zM443.25641,170.19513c-0.41453,0.83552 -1.07777,1.55168 -1.65811,2.26784l0.08291,0.23872c0.74615,-0.11936 1.65811,0.11936 2.23844,-0.35808c0.82905,-0.71616 1.4923,-2.02912 2.23844,-3.10336c-0.16581,-0.11936 -0.24872,-0.23872 -0.33162,-0.23872c-0.91196,-0.11936 -1.82392,-0.35808 -2.57007,1.1936zM442.34445,157.66235c0.58034,0.35808 0.91196,0.5968 1.4923,0.95488c-0.08291,-0.5968 -0.08291,-0.95488 -0.16581,-1.43232c-0.41453,0.23872 -0.74615,0.35808 -1.32649,0.47744zM428.41635,164.82394c5.72047,-2.984 9.86574,-0.5968 12.60161,7.16159c0.99486,-1.31296 1.98973,-2.3872 2.90169,-3.5808c0.16581,-0.11936 0.24872,-0.47744 0.24872,-0.71616c-0.41453,-2.86464 -1.40939,-5.01311 -3.31621,-6.08735c-2.65297,-1.43232 -5.30594,-1.7904 -8.04182,-0.5968c-1.65811,0.71616 -3.1504,1.90976 -4.39398,3.81952zM438.365,208.15157c0,0 0.08291,0.11936 0.08291,0.23872c0.91196,-0.47744 1.82392,-0.95488 2.65297,-1.55168c0.99486,-0.71616 1.4923,-2.14848 1.4923,-3.70016c0.08291,-3.70016 0.16581,-7.51967 0.16581,-11.21983c0.08291,-1.90976 -1.74101,-3.46144 -2.81878,-2.3872c-1.16067,1.1936 -2.15554,2.62592 -3.23331,4.05824c0,0.11936 0.08291,0.11936 0.08291,0.23872c0.66324,-0.11936 1.40939,-0.23872 2.07263,-0.35808c1.40939,-0.23872 1.98973,0.35808 2.32135,2.3872c0.33162,2.3872 0.33162,4.65504 0.16581,7.04223c-0.08291,2.02912 -0.66324,3.46144 -1.90682,4.41632c-0.33162,0.23872 -0.66324,0.47744 -1.07777,0.83552zM443.50513,211.37429c-1.07777,0.35808 -2.15554,0.95488 -3.23331,1.31296c-2.57007,0.95488 -5.22304,1.1936 -7.87601,0.5968c-3.73074,-0.95488 -6.88114,-3.81952 -9.61702,-7.28095c-2.32135,-2.86464 -4.06236,-6.56479 -5.05723,-10.98111c-1.07777,-4.65504 -1.5752,-9.42943 -1.40939,-14.32319c0.08291,-2.02912 0.49743,-4.1776 0.99486,-6.20671c0.74615,-2.86464 1.65811,-5.60991 3.0675,-8.11647c-0.99486,1.07424 -1.90682,2.14848 -2.65297,3.46144c-1.24358,2.14848 -2.15554,4.53568 -2.98459,7.16159c-0.33162,0.95488 -0.58034,2.02912 -0.74615,3.10336c-0.49743,3.10336 -0.58034,6.32607 -0.24872,9.54879c0.33162,3.70016 0.91196,7.28095 1.98973,10.74239c1.07777,3.22272 2.57007,6.08735 4.06236,8.83263c0.66324,1.1936 1.5752,2.26784 2.48716,3.10336c1.07777,1.07424 2.23844,1.7904 3.39912,2.50656c2.15554,1.1936 4.39398,1.7904 6.63243,2.02912c2.07263,0.11936 4.06236,-0.35808 6.05209,-1.1936c1.98973,-0.71616 3.64784,-2.62592 5.14013,-4.29696z" fill="#53ad4e"/><path d="M443.83675,158.61723c-0.58034,-0.35808 -0.91196,-0.5968 -1.4923,-0.95488c0.58034,-0.11936 0.91196,-0.23872 1.32649,-0.47744c0.08291,0.47744 0.16581,0.83552 0.16581,1.43232z" fill="#ffffff"/><path d="M446.1581,169.24025c-0.74615,1.07424 -1.40939,2.3872 -2.23844,3.10336c-0.58034,0.47744 -1.4923,0.23872 -2.23844,0.35808l-0.08291,-0.23872c0.58034,-0.71616 1.24358,-1.43232 1.65811,-2.26784c0.66324,-1.43232 1.5752,-1.31296 2.57007,-1.07424c0.08291,-0.11936 0.16581,0 0.33162,0.11936z" fill="#ffffff"/><path d="M444.16837,167.68858c0,0.23872 -0.08291,0.5968 -0.24872,0.71616c-0.91196,1.1936 -1.90682,2.26784 -2.90169,3.5808c-2.73588,-7.75839 -6.88114,-10.14559 -12.60161,-7.16159c1.24358,-1.90976 2.73588,-3.10336 4.47689,-3.81952c2.73588,-1.1936 5.38885,-0.83552 8.04182,0.5968c1.82392,1.07424 2.90169,3.22272 3.23331,6.08735z" fill="#ffffff"/><path d="M442.75898,191.91863c0,3.70016 -0.08291,7.51967 -0.16581,11.21983c0,1.55168 -0.49743,2.984 -1.4923,3.70016c-0.82905,0.5968 -1.74101,1.07424 -2.65297,1.55168c0,-0.11936 -0.08291,-0.23872 -0.08291,-0.23872c0.33162,-0.23872 0.66324,-0.47744 0.99486,-0.71616c1.24358,-0.95488 1.82392,-2.3872 1.90682,-4.41632c0.16581,-2.3872 0.16581,-4.65504 -0.16581,-7.04223c-0.33162,-2.02912 -0.91196,-2.62592 -2.32135,-2.3872c-0.66324,0.11936 -1.40939,0.23872 -2.07263,0.35808c0,-0.11936 -0.08291,-0.11936 -0.08291,-0.23872c1.07777,-1.43232 2.07263,-2.86464 3.23331,-4.05824c1.16067,-1.1936 2.90169,0.35808 2.90169,2.26784z" fill="#ffffff"/><path d="M443.58803,211.25493c-1.65811,1.7904 -3.23331,3.70016 -5.30594,4.41632c-1.98973,0.83552 -3.97946,1.31296 -6.05209,1.1936c-2.23844,-0.23872 -4.47689,-0.83552 -6.63243,-2.02912c-1.16067,-0.71616 -2.32135,-1.43232 -3.39912,-2.50656c-0.91196,-0.83552 -1.82392,-1.90976 -2.48716,-3.10336c-1.4923,-2.74528 -2.98459,-5.60991 -4.06236,-8.83263c-1.07777,-3.46144 -1.65811,-7.04223 -1.98973,-10.74239c-0.33162,-3.22272 -0.24872,-6.44543 0.24872,-9.54879c0.16581,-1.07424 0.41453,-2.14848 0.74615,-3.10336c0.82905,-2.62592 1.74101,-5.01311 2.98459,-7.16159c0.74615,-1.31296 1.65811,-2.3872 2.65297,-3.46144c-1.40939,2.50656 -2.32135,5.25183 -3.0675,8.11647c-0.41453,2.02912 -0.82905,4.1776 -0.91196,6.20671c-0.16581,4.89375 0.33162,9.66815 1.40939,14.32319c0.99486,4.41632 2.73588,8.11647 5.05723,10.98111c2.73588,3.46144 5.88628,6.32607 9.61702,7.28095c2.65297,0.5968 5.30594,0.35808 7.87601,-0.5968c1.16067,-0.47744 2.23844,-0.95488 3.31621,-1.43232z" fill="#ffffff"/></g></g></svg>